<svg width="130" height="53" viewBox="0 0 130 53" fill="none" xmlns="http://www.w3.org/2000/svg">
<g clip-path="url(#clip0)">
<path d="M26.8976 51.8238C15.9865 48.5053 8.05647 38.4267 8.05647 26.5C8.05647 14.4468 16.1557 4.28452 27.2324 1.05156C28.3668 0.714714 28.073 4.19617e-05 26.6875 4.19617e-05C11.9583 4.19617e-05 0 11.8857 0 26.5C0 41.1143 11.9583 53 26.6875 53C28.073 53 28.1567 52.2016 26.8976 51.8238Z" fill="#0099CC"/>
<path d="M13.1341 32.6738C13.0504 31.9591 13.0077 31.2462 13.0077 30.5315C13.0077 18.8989 22.4087 9.49227 34.0322 9.49227C45.0252 9.49227 48.2984 14.4059 48.7187 14.069C49.1799 13.734 44.7314 3.99052 31.8489 3.99052C20.2254 3.99052 10.8262 13.3971 10.8262 25.0298C10.8262 27.7174 11.3301 30.2802 12.2526 32.631C12.6302 33.6397 13.2178 33.6397 13.1341 32.6738Z" fill="#0099CC"/>
<path d="M21.9462 17.5132C27.4009 15.1196 34.2838 15.0359 41.0385 17.4294C45.5707 19.0245 48.2153 21.2933 48.4254 21.1668C48.8029 20.9992 45.7809 16.2531 40.3671 14.1947C33.8208 11.7174 26.7723 13.0202 21.6524 17.0516C21.0647 17.5132 21.2749 17.8072 21.9462 17.5132Z" fill="#0099CC"/>
<path d="M129.999 27.4241C129.999 28.9355 128.74 30.1955 127.23 30.1955C125.718 30.1955 124.461 28.9782 124.461 27.4241C124.461 25.9128 125.677 24.6528 127.23 24.6528C128.783 24.6528 129.999 25.87 129.999 27.4241Z" fill="#FF9933"/>
<path d="M39.8632 42.9206L40.198 46.617H46.032L44.0589 25.1571H35.3738L24.3789 46.617H30.3376L32.1843 42.9206H39.8632ZM39.5694 38.7628H34.2393L38.8143 29.4826H38.8553L39.5694 38.7628Z" fill="#FF9933"/>
<path d="M54.1311 37.2511H55.0126L59.1673 31.5817H64.5793L58.8307 38.8052L62.3568 46.6167H56.6065L54.2985 40.5267H53.4597L52.1598 46.6167H47.25L51.7804 25.1568H56.6902L54.1311 37.2511Z" fill="#FF9933"/>
<path d="M72.2597 46.6162H77.1695L79.1408 37.2506C80.2325 32.0857 78.2611 31.4566 73.2249 31.4566C69.7007 31.4566 66.3011 31.4138 65.3359 36.0743H70.2456C70.5394 34.7305 71.3782 34.4382 72.5963 34.4382C74.7351 34.4382 74.6514 35.3187 74.3575 36.7052L73.8536 39.0988H73.6452C73.476 37.3771 71.2945 37.4199 69.909 37.4199C66.3438 37.4199 64.2442 38.5534 63.4891 42.1642C62.6931 45.9853 64.4971 46.8265 67.9376 46.8265C69.6579 46.8265 71.9659 46.4897 72.7637 44.433H72.9311L72.2597 46.6162ZM70.8742 40.4016C72.4699 40.4016 73.5188 40.5263 73.2659 41.7864C72.9311 43.3405 72.2597 43.6346 70.2029 43.6346C69.4478 43.6346 68.0641 43.6346 68.3989 41.9967C68.6927 40.6101 69.6579 40.4016 70.8742 40.4016Z" fill="#FF9933"/>
<path d="M87.1134 31.5818L86.6522 33.6813H86.8623C87.8275 31.9169 89.7989 31.4143 91.4782 31.4143C93.576 31.4143 95.6738 31.7921 95.38 34.3532H95.5901C96.3025 32.2109 98.4858 31.4143 100.373 31.4143C103.857 31.4143 105.326 32.8418 104.569 36.3279L102.388 46.6167H97.4778L99.3245 37.923C99.5756 36.3689 99.8285 35.1926 97.9391 35.1926C96.0086 35.1926 95.38 36.4526 95.0434 38.0905L93.2395 46.6167H88.3297L90.2601 37.5024C90.513 36.1176 90.5967 35.1926 88.8764 35.1926C86.8623 35.1926 86.2319 36.2851 85.8544 38.0905L84.0504 46.6167H79.1406L82.3301 31.5818H87.1134Z" fill="#FF9933"/>
<path d="M113.677 46.6162H118.586L120.601 37.2506C121.692 32.0857 119.719 31.4566 114.685 31.4566C111.159 31.4566 107.759 31.4138 106.796 36.0743H111.705C111.997 34.7305 112.838 34.4382 114.054 34.4382C116.195 34.4382 116.111 35.3187 115.817 36.7052L115.313 39.0988H115.103C114.936 37.3771 112.754 37.4199 111.369 37.4199C107.802 37.4199 105.704 38.5534 104.949 42.1642C104.151 45.9853 105.955 46.8265 109.396 46.8265C111.118 46.8265 113.426 46.4897 114.222 44.433H114.391L113.677 46.6162ZM112.334 40.4016C113.928 40.4016 114.977 40.5263 114.726 41.7864C114.391 43.3405 113.719 43.6346 111.663 43.6346C110.907 43.6346 109.522 43.6346 109.859 41.9967C110.152 40.6101 111.118 40.4016 112.334 40.4016Z" fill="#FF9933"/>
<path d="M125.72 46.6162H120.811L123.957 31.5814H128.91L125.72 46.6162Z" fill="#FF9933"/>
</g>
<defs>
<clipPath id="clip0">
<rect width="130" height="53" fill="white"/>
</clipPath>
</defs>
</svg>
