<svg width="32" height="32" viewBox="0 0 32 32" fill="none" xmlns="http://www.w3.org/2000/svg">
<path fill-rule="evenodd" clip-rule="evenodd" d="M16 0C7.16344 0 0 7.16344 0 16C0 24.8366 7.16344 32 16 32C24.8366 32 32 24.8366 32 16C32 7.16344 24.8366 0 16 0ZM12.4822 7.51816C13.3924 7.47673 13.6833 7.4666 16.0008 7.4666H15.9981C18.3164 7.4666 18.6062 7.47673 19.5164 7.51816C20.4249 7.55976 21.0453 7.70358 21.5893 7.91461C22.1511 8.13239 22.6258 8.42394 23.1004 8.89862C23.5751 9.37293 23.8667 9.84903 24.0853 10.4103C24.2951 10.9529 24.4391 11.573 24.4818 12.4814C24.5227 13.3916 24.5334 13.6825 24.5334 16C24.5334 18.3176 24.5227 18.6077 24.4818 19.5179C24.4391 20.426 24.2951 21.0463 24.0853 21.5891C23.8667 22.1501 23.5751 22.6262 23.1004 23.1005C22.6263 23.5752 22.1509 23.8675 21.5899 24.0854C21.0469 24.2965 20.4261 24.4403 19.5177 24.4819C18.6074 24.5233 18.3175 24.5334 15.9998 24.5334C13.6824 24.5334 13.3917 24.5233 12.4815 24.4819C11.5732 24.4403 10.9529 24.2965 10.41 24.0854C9.84911 23.8675 9.37301 23.5752 8.89888 23.1005C8.42438 22.6262 8.13282 22.1501 7.91469 21.5889C7.70384 21.0463 7.56002 20.4262 7.51824 19.5177C7.47699 18.6075 7.46668 18.3176 7.46668 16C7.46668 13.6825 7.47735 13.3915 7.51806 12.4812C7.55895 11.5731 7.70295 10.9529 7.91451 10.4101C8.13318 9.84903 8.42474 9.37293 8.89941 8.89862C9.37372 8.42412 9.84982 8.13256 10.4111 7.91461C10.9537 7.70358 11.5737 7.55976 12.4822 7.51816Z" fill="#B0B3B8"/>
<path fill-rule="evenodd" clip-rule="evenodd" d="M15.2352 9.00457C15.3839 9.00434 15.5438 9.00441 15.7163 9.00449L16.0008 9.00457C18.2792 9.00457 18.5492 9.01275 19.449 9.05364C20.281 9.09169 20.7325 9.23071 21.0333 9.34751C21.4316 9.50218 21.7155 9.68707 22.014 9.98574C22.3126 10.2844 22.4975 10.5689 22.6526 10.9671C22.7694 11.2675 22.9086 11.7191 22.9464 12.5511C22.9873 13.4507 22.9962 13.7209 22.9962 15.9982C22.9962 18.2756 22.9873 18.5458 22.9464 19.4454C22.9084 20.2774 22.7694 20.729 22.6526 21.0294C22.4979 21.4276 22.3126 21.7112 22.014 22.0097C21.7153 22.3084 21.4317 22.4932 21.0333 22.6479C20.7329 22.7653 20.281 22.9039 19.449 22.942C18.5494 22.9829 18.2792 22.9917 16.0008 22.9917C13.7222 22.9917 13.4521 22.9829 12.5525 22.942C11.7205 22.9036 11.269 22.7645 10.968 22.6477C10.5698 22.4931 10.2853 22.3082 9.98665 22.0095C9.68798 21.7108 9.50309 21.4271 9.34806 21.0287C9.23126 20.7283 9.09206 20.2767 9.05419 19.4447C9.0133 18.5451 9.00513 18.2749 9.00513 15.9961C9.00513 13.7173 9.0133 13.4485 9.05419 12.549C9.09224 11.717 9.23126 11.2654 9.34806 10.9646C9.50273 10.5664 9.68798 10.2819 9.98665 9.98325C10.2853 9.68458 10.5698 9.49969 10.968 9.34467C11.2688 9.22733 11.7205 9.08866 12.5525 9.05044C13.3397 9.01489 13.6448 9.00422 15.2352 9.00244V9.00457ZM20.5558 10.4215C19.9905 10.4215 19.5318 10.8796 19.5318 11.4452C19.5318 12.0105 19.9905 12.4692 20.5558 12.4692C21.1212 12.4692 21.5798 12.0105 21.5798 11.4452C21.5798 10.8798 21.1212 10.4212 20.5558 10.4212V10.4215ZM11.6185 16.0002C11.6185 13.5801 13.5805 11.618 16.0006 11.6179C18.4207 11.6179 20.3823 13.5801 20.3823 16.0002C20.3823 18.4203 18.4209 20.3816 16.0008 20.3816C13.5806 20.3816 11.6185 18.4203 11.6185 16.0002Z" fill="#B0B3B8"/>
<path d="M16.0008 13.1558C17.5717 13.1558 18.8453 14.4292 18.8453 16.0002C18.8453 17.5711 17.5717 18.8447 16.0008 18.8447C14.4298 18.8447 13.1564 17.5711 13.1564 16.0002C13.1564 14.4292 14.4298 13.1558 16.0008 13.1558Z" fill="#B0B3B8"/>
</svg>
