<svg width="90" height="20" viewBox="0 0 90 20" fill="none" xmlns="http://www.w3.org/2000/svg">
<path d="M0.534424 7.38472L8.64528 7.38629L13.5772 7.3871V2.66607L0.534424 7.38472Z" fill="#FF9D28"/>
<path d="M13.5771 2.66606V19.3337L19.737 0.43679L13.5771 2.66606Z" fill="#68C5ED"/>
<path d="M13.5772 7.3871L8.64526 7.38628L13.5772 19.3337V7.3871Z" fill="#044D80"/>
<path d="M0.534424 7.3847L9.91002 10.4518L8.64528 7.38626L0.534424 7.3847Z" fill="#E54747"/>
<path d="M30.4131 14.9462C30.3416 15.0153 30.2224 15.1015 30.0558 15.205C29.8889 15.3087 29.6717 15.4122 29.4037 15.5159C29.1358 15.6193 28.808 15.7083 28.4212 15.7834C28.0339 15.858 27.5905 15.8955 27.0902 15.8955C26.1254 15.8955 25.2917 15.7458 24.5891 15.4468C23.8862 15.1478 23.3056 14.7303 22.8472 14.1953C22.3886 13.6602 22.0523 13.0274 21.8379 12.2965C21.6235 11.5658 21.5164 10.7632 21.5164 9.88846C21.5164 9.0141 21.6325 8.20548 21.8647 7.46324C22.0969 6.72094 22.4453 6.07963 22.9097 5.5385C23.3743 4.99778 23.9549 4.5748 24.6517 4.26975C25.3484 3.96504 26.1671 3.81233 27.1081 3.81233C27.5726 3.81233 27.9924 3.85274 28.3676 3.93315C28.7428 4.01373 29.0702 4.10875 29.3502 4.21798C29.6299 4.32749 29.8622 4.44233 30.0469 4.56321C30.2314 4.68403 30.3713 4.78496 30.4668 4.86525C30.574 4.95755 30.6661 5.06677 30.7437 5.19321C30.821 5.32 30.8598 5.45809 30.8598 5.60755C30.8598 5.83788 30.7705 6.06792 30.5918 6.29802C30.4132 6.52835 30.2167 6.74123 30.0022 6.93672C29.8593 6.79862 29.6986 6.65786 29.5199 6.51386C29.3413 6.37002 29.1417 6.24358 28.9214 6.13407C28.7009 6.02485 28.4508 5.93284 28.1711 5.85788C27.8911 5.78315 27.5785 5.74564 27.2332 5.74564C26.6258 5.74564 26.1167 5.8638 25.7057 6.09952C25.2949 6.33553 24.9643 6.64325 24.7142 7.02304C24.4642 7.40283 24.2855 7.83728 24.1783 8.32629C24.0711 8.81554 24.0175 9.31318 24.0175 9.81947C24.0175 10.3605 24.0711 10.8783 24.1783 11.3729C24.2854 11.8678 24.4699 12.3052 24.7321 12.6848C24.9939 13.0646 25.3364 13.3696 25.7593 13.5997C26.1819 13.83 26.7089 13.9449 27.3404 13.9449C27.6736 13.9449 27.9805 13.9048 28.2604 13.8242C28.5401 13.7437 28.7874 13.6458 29.0018 13.5306C29.2162 13.4158 29.4038 13.295 29.5645 13.1683C29.7253 13.0417 29.8593 12.9325 29.9665 12.8402C30.038 12.9209 30.1211 13.0188 30.2166 13.1337C30.3126 13.2498 30.402 13.3709 30.4846 13.4962C30.5678 13.623 30.6392 13.7495 30.6989 13.8758C30.7584 14.0027 30.7882 14.1176 30.7882 14.221C30.7882 14.3708 30.7584 14.4973 30.6989 14.6009C30.6392 14.7045 30.544 14.8197 30.4131 14.9462ZM39.6197 13.6223C39.6197 14.5369 39.7573 15.2026 40.033 15.6194C39.8174 15.7003 39.6166 15.7583 39.4309 15.793C39.245 15.8278 39.0505 15.845 38.8468 15.845C38.4155 15.845 38.0889 15.764 37.8674 15.602C37.6456 15.44 37.5048 15.2085 37.445 14.9073C37.1813 15.1739 36.8339 15.3995 36.4026 15.5848C35.9713 15.7697 35.4439 15.8625 34.821 15.8625C34.4975 15.8625 34.174 15.8192 33.8505 15.7329C33.5269 15.646 33.2333 15.5049 32.9698 15.3089C32.7061 15.1125 32.4905 14.85 32.3228 14.521C32.1548 14.1921 32.0711 13.7911 32.0711 13.3181C32.0711 12.7295 32.2178 12.2504 32.5115 11.8813C32.805 11.5118 33.1734 11.2205 33.6169 11.0069C34.06 10.7936 34.5394 10.6468 35.0547 10.5658C35.5697 10.4849 36.0432 10.4331 36.4745 10.4098C36.6184 10.3983 36.759 10.3924 36.8969 10.3924H37.2833V10.0763C37.2833 9.63129 37.1603 9.31515 36.9148 9.12796C36.6691 8.9407 36.2706 8.84684 35.7196 8.84684C35.2043 8.84684 34.746 8.92795 34.3447 9.08993C33.9431 9.25219 33.5508 9.43725 33.1675 9.64566C32.9996 9.4489 32.8647 9.2319 32.7631 8.99444C32.6612 8.75733 32.6104 8.58068 32.6104 8.46479C32.6104 8.30281 32.703 8.14652 32.8889 7.9959C33.0746 7.84563 33.3293 7.70939 33.6528 7.58782C33.9764 7.46625 34.3476 7.36804 34.7672 7.29262C35.1864 7.21743 35.6298 7.17974 36.0971 7.17974C36.7441 7.17974 37.2923 7.24352 37.7416 7.37077C38.1909 7.49831 38.5563 7.69502 38.8379 7.96117C39.1193 8.22768 39.3201 8.56033 39.44 8.95972C39.5596 9.35916 39.6197 9.82532 39.6197 10.3576V13.6223H39.6197ZM37.3191 11.6079H37.0676C36.9835 11.6079 36.8996 11.6139 36.8159 11.6254C36.5162 11.6487 36.2197 11.6833 35.9263 11.7294C35.6326 11.7759 35.3719 11.8569 35.1445 11.9726C34.9168 12.0885 34.7311 12.2391 34.5874 12.4241C34.4435 12.6094 34.3717 12.8469 34.3717 13.1362C34.3717 13.4603 34.4674 13.7351 34.6592 13.9609C34.8507 14.1868 35.1742 14.2996 35.6297 14.2996C35.8572 14.2996 36.073 14.2709 36.2768 14.2127C36.4804 14.155 36.6601 14.0797 36.8159 13.9871C36.9715 13.8945 37.0945 13.7932 37.1844 13.6831C37.2742 13.5732 37.3192 13.472 37.3192 13.3793V11.6079H37.3191ZM44.0946 8.18687C44.2856 7.96709 44.5844 7.74406 44.9904 7.51825C45.3965 7.2925 45.9101 7.17963 46.5313 7.17963C46.9733 7.17963 47.3943 7.25204 47.7946 7.39668C48.1944 7.54156 48.5499 7.77606 48.8605 8.10002C49.1711 8.42427 49.4189 8.8527 49.6042 9.38507C49.7893 9.91773 49.8819 10.572 49.8819 11.3474C49.8819 12.2504 49.7743 12.9944 49.5593 13.5789C49.3442 14.1637 49.0667 14.6268 48.7264 14.9682C48.386 15.3098 48.0065 15.55 47.5887 15.6889C47.1706 15.8278 46.7524 15.8973 46.3345 15.8973C45.9881 15.8973 45.6863 15.8597 45.4298 15.7845C45.1728 15.709 44.9549 15.6254 44.7757 15.5326C44.5966 15.4401 44.4593 15.3476 44.3638 15.2548C44.2683 15.1622 44.2085 15.0984 44.1847 15.0636V19.3325H41.7403V7.42271C41.8004 7.41135 41.8729 7.3997 41.9576 7.38804C42.0302 7.37668 42.1147 7.36793 42.2113 7.36196C42.3078 7.35627 42.4225 7.35332 42.5552 7.35332C42.9535 7.35332 43.2916 7.41709 43.5692 7.54434C43.8469 7.67188 44.0222 7.88592 44.0946 8.18687ZM47.3297 11.3994C47.3297 11.0522 47.2999 10.7282 47.2404 10.427C47.1809 10.1262 47.0826 9.86562 46.9456 9.64561C46.8085 9.42577 46.6237 9.25486 46.3915 9.13323C46.1589 9.01172 45.8762 8.95102 45.5428 8.95102C45.0424 8.95102 44.6939 9.04378 44.4973 9.22877C44.3008 9.41412 44.2025 9.61685 44.2025 9.83663V13.5182C44.2976 13.611 44.4672 13.7208 44.7115 13.8481C44.9559 13.9756 45.2386 14.039 45.5605 14.039C46.1681 14.039 46.6149 13.8077 46.9009 13.3445C47.1868 12.8815 47.3297 12.233 47.3297 11.3994ZM51.7684 14.3865C51.6844 14.155 51.6305 13.9118 51.6067 13.657C51.5825 13.4025 51.5707 13.1479 51.5707 12.8928V4.83522C51.6544 4.82386 51.7443 4.81221 51.8403 4.8005C51.9239 4.78913 52.0138 4.7805 52.1098 4.77447C52.2056 4.76879 52.3014 4.76583 52.3973 4.76583C52.5889 4.76583 52.7808 4.78322 52.9726 4.81789C53.164 4.85267 53.3378 4.92213 53.4938 5.02625C53.6494 5.13043 53.7752 5.2724 53.8712 5.45172C53.967 5.63132 54.0149 5.86582 54.0149 6.155V7.38793H56.5312V9.14199H54.0149V12.8452C54.0149 13.6528 54.3564 14.0564 55.0394 14.0564C55.2071 14.0564 55.3657 14.0305 55.5157 13.9783C55.6654 13.9262 55.8002 13.8684 55.9201 13.8047C56.0398 13.7411 56.1448 13.6745 56.2346 13.605C56.3245 13.5355 56.3874 13.4835 56.4233 13.4487C56.603 13.7036 56.7406 13.9242 56.8367 14.1103C56.9324 14.2967 56.9804 14.4716 56.9804 14.6351C56.9804 14.7871 56.9177 14.9362 56.7917 15.0822C56.6658 15.2282 56.489 15.3628 56.2615 15.4854C56.0338 15.608 55.7584 15.7074 55.4348 15.7834C55.1113 15.8594 54.7577 15.8974 54.3744 15.8974C53.6313 15.8974 53.0533 15.7584 52.64 15.4806C52.2266 15.2026 51.9359 14.8379 51.7684 14.3865ZM62.7218 14.1607C63.0223 14.1607 63.2868 14.129 63.5155 14.0651C63.7438 14.0017 63.9481 13.9235 64.1285 13.8309C64.3088 13.7383 64.4653 13.637 64.5976 13.527C64.7297 13.417 64.8499 13.3158 64.9584 13.2229C65.1025 13.3965 65.2527 13.6196 65.4091 13.8914C65.5654 14.1637 65.6436 14.3865 65.6436 14.5601C65.6436 14.8148 65.4937 15.0464 65.1944 15.2548C64.9427 15.4401 64.586 15.5993 64.125 15.7322C63.6635 15.8653 63.1213 15.9319 62.4985 15.9319C61.935 15.9319 61.381 15.8625 60.836 15.7236C60.2907 15.5847 59.8053 15.3415 59.3802 14.9942C58.9547 14.647 58.6102 14.1811 58.3466 13.5964C58.0831 13.0117 57.9513 12.2739 57.9513 11.3822C57.9513 10.6527 58.0682 10.0249 58.3016 9.498C58.5354 8.97131 58.8468 8.53425 59.2365 8.18692C59.6256 7.8396 60.0659 7.5851 60.5573 7.42277C61.0485 7.26085 61.5518 7.17969 62.0671 7.17969C62.738 7.17969 63.3071 7.2812 63.7744 7.48359C64.2418 7.68626 64.622 7.95839 64.9157 8.2998C65.2091 8.64132 65.4218 9.03207 65.5537 9.47197C65.6854 9.91205 65.7514 10.375 65.7514 10.8612V11.1043C65.7514 11.1972 65.7484 11.2953 65.7424 11.3995C65.7363 11.5038 65.7304 11.6052 65.7245 11.7034C65.7183 11.802 65.7093 11.88 65.6977 11.9379H60.3956C60.4436 12.5747 60.648 13.1043 61.0087 13.527C61.3691 13.9496 61.9402 14.1607 62.7218 14.1607ZM63.5408 10.6354C63.5408 10.0797 63.4292 9.62821 63.2063 9.28089C62.9833 8.93363 62.5825 8.75988 62.0044 8.75988C61.51 8.75988 61.1155 8.92493 60.8203 9.25486C60.5249 9.58485 60.3776 10.045 60.3776 10.6353H63.5408V10.6354ZM70.0051 8.23075C70.0768 8.12744 70.1726 8.01265 70.2926 7.88616C70.4122 7.75977 70.5591 7.64493 70.7329 7.54162C70.9065 7.43825 71.0983 7.35193 71.3081 7.28305C71.5175 7.21412 71.7422 7.17969 71.9821 7.17969C72.1258 7.17969 72.2786 7.19134 72.4403 7.21412C72.6021 7.2372 72.7517 7.28033 72.8896 7.34329C73.0273 7.40654 73.1383 7.49251 73.2221 7.60162C73.3059 7.71073 73.348 7.84557 73.348 8.00622C73.348 8.25881 73.2819 8.54891 73.1503 8.87641C73.0183 9.20419 72.8867 9.48368 72.7549 9.71512C72.551 9.55308 72.3473 9.42861 72.1438 9.34176C71.9399 9.25498 71.7003 9.2115 71.4248 9.2115C71.0534 9.2115 70.7419 9.31602 70.4904 9.5249C70.2386 9.73384 70.1128 9.98348 70.1128 10.2738V15.8954H67.6687V7.42271C67.7284 7.41135 67.8003 7.3997 67.8842 7.38804C67.9561 7.37668 68.0399 7.36793 68.1359 7.36196C68.2317 7.35627 68.3454 7.35332 68.4773 7.35332C68.8607 7.35332 69.1931 7.42515 69.4748 7.56852C69.7562 7.71171 69.9332 7.93259 70.0051 8.23075ZM76.9544 8.23075C77.0263 8.12744 77.1221 8.01265 77.242 7.88616C77.3617 7.75977 77.5085 7.64493 77.6824 7.54162C77.8559 7.43825 78.0476 7.35193 78.2575 7.28305C78.467 7.21412 78.6916 7.17969 78.9314 7.17969C79.0751 7.17969 79.2279 7.19134 79.3897 7.21412C79.5514 7.2372 79.7011 7.28033 79.839 7.34329C79.9767 7.40654 80.0875 7.49251 80.1716 7.60162C80.2553 7.71073 80.2974 7.84557 80.2974 8.00622C80.2974 8.25881 80.2313 8.54891 80.0997 8.87641C79.9676 9.20419 79.8359 9.48368 79.7042 9.71512C79.5005 9.55308 79.2967 9.42861 79.0931 9.34176C78.8894 9.25498 78.6497 9.2115 78.3743 9.2115C78.0028 9.2115 77.6913 9.31602 77.4397 9.5249C77.1881 9.73384 77.0623 9.98348 77.0623 10.2738V15.8954H74.618V7.42271C74.6779 7.41135 74.7497 7.3997 74.8337 7.38804C74.9056 7.37668 74.9894 7.36793 75.0853 7.36196C75.1811 7.35627 75.2948 7.35332 75.4267 7.35332C75.8102 7.35332 76.1426 7.42515 76.4242 7.56852C76.7056 7.71171 76.8824 7.93259 76.9544 8.23075ZM88.6188 13.6223C88.6188 14.5369 88.7565 15.2026 89.0322 15.6194C88.8165 15.7003 88.6157 15.7583 88.4302 15.793C88.2443 15.8278 88.0496 15.845 87.8461 15.845C87.4146 15.845 87.0881 15.764 86.8666 15.602C86.6446 15.44 86.504 15.2085 86.4441 14.9073C86.1805 15.1739 85.8331 15.3995 85.4017 15.5848C84.9704 15.7697 84.443 15.8625 83.8202 15.8625C83.4966 15.8625 83.1732 15.8192 82.8496 15.7329C82.5261 15.646 82.2323 15.5049 81.9689 15.3089C81.7052 15.1125 81.4896 14.85 81.3219 14.521C81.154 14.1921 81.0704 13.7911 81.0704 13.3181C81.0704 12.7295 81.2168 12.2504 81.5107 11.8813C81.8041 11.5118 82.1726 11.2205 82.616 11.0069C83.0591 10.7936 83.5384 10.6468 84.0539 10.5658C84.5688 10.4849 85.0423 10.4331 85.4737 10.4098C85.6175 10.3983 85.7581 10.3924 85.8961 10.3924H86.2825V10.0763C86.2825 9.63129 86.1594 9.31515 85.9139 9.12796C85.6681 8.9407 85.2698 8.84684 84.7188 8.84684C84.2035 8.84684 83.7452 8.92795 83.3439 9.08993C82.9423 9.25219 82.55 9.43725 82.1666 9.64566C81.9988 9.4489 81.8638 9.2319 81.7622 8.99444C81.6604 8.75733 81.6095 8.58068 81.6095 8.46479C81.6095 8.30281 81.7022 8.14652 81.8881 7.9959C82.0738 7.84563 82.3285 7.70939 82.6519 7.58782C82.9755 7.46625 83.3467 7.36804 83.7662 7.29262C84.1855 7.21743 84.6289 7.17974 85.0962 7.17974C85.7432 7.17974 86.2914 7.24352 86.7407 7.37077C87.19 7.49831 87.5554 7.69502 87.837 7.96117C88.1184 8.22768 88.3191 8.56033 88.4392 8.95972C88.5587 9.35916 88.6188 9.82532 88.6188 10.3576V13.6223ZM86.3183 11.6079H86.0667C85.9827 11.6079 85.8988 11.6139 85.8151 11.6254C85.5155 11.6487 85.2188 11.6833 84.9254 11.7294C84.6317 11.7759 84.3712 11.8569 84.1436 11.9726C83.9159 12.0885 83.7303 12.2391 83.5865 12.4241C83.4427 12.6094 83.3708 12.8469 83.3708 13.1362C83.3708 13.4603 83.4666 13.7351 83.6584 13.9609C83.8499 14.1868 84.1735 14.2996 84.6289 14.2996C84.8564 14.2996 85.0722 14.2709 85.276 14.2127C85.4796 14.155 85.6592 14.0797 85.8151 13.9871C85.9706 13.8945 86.0938 13.7932 86.1835 13.6831C86.2734 13.5732 86.3183 13.472 86.3183 13.3793V11.6079H86.3183Z" fill="#044D80"/>
</svg>
