<svg width="140" height="31" viewBox="0 0 140 31" fill="none" xmlns="http://www.w3.org/2000/svg">
<path d="M0.831055 11.4462L13.448 11.4487L21.1199 11.4499V4.13232L0.831055 11.4462Z" fill="#FF9D28"/>
<path d="M21.1201 4.13237V29.9672L30.7022 0.677002L21.1201 4.13237Z" fill="#68C5ED"/>
<path d="M21.1202 11.45L13.4482 11.4487L21.1202 29.9672V11.45Z" fill="#044D80"/>
<path d="M0.831055 11.4463L15.4153 16.2003L13.4479 11.4487L0.831055 11.4463Z" fill="#E54747"/>
<path d="M47.3096 23.1666C47.1983 23.2737 47.013 23.4073 46.7538 23.5678C46.4941 23.7285 46.1563 23.889 45.7394 24.0497C45.3226 24.21 44.8128 24.348 44.211 24.4644C43.6086 24.58 42.9188 24.6381 42.1407 24.6381C40.6399 24.6381 39.3429 24.4061 38.25 23.9426C37.1566 23.4791 36.2535 22.8321 35.5404 22.0028C34.8271 21.1733 34.3039 20.1925 33.9704 19.0596C33.6369 17.927 33.4702 16.683 33.4702 15.3272C33.4702 13.9719 33.6508 12.7186 34.0121 11.5681C34.3733 10.4175 34.9152 9.4235 35.6377 8.58475C36.3603 7.74663 37.2635 7.09101 38.3473 6.61817C39.4311 6.14587 40.7047 5.90918 42.1684 5.90918C42.891 5.90918 43.5441 5.97181 44.1277 6.09645C44.7113 6.22135 45.2206 6.36863 45.6562 6.53793C46.0912 6.70767 46.4526 6.88568 46.74 7.07304C47.027 7.26031 47.2446 7.41675 47.3931 7.54121C47.5598 7.68426 47.7032 7.85356 47.8239 8.04954C47.9442 8.24607 48.0045 8.46011 48.0045 8.69177C48.0045 9.04878 47.8655 9.40534 47.5876 9.762C47.3098 10.119 47.004 10.449 46.6704 10.752C46.4481 10.5379 46.1981 10.3198 45.9202 10.0965C45.6423 9.8736 45.3319 9.67762 44.9892 9.50787C44.6462 9.33858 44.2571 9.19597 43.822 9.07978C43.3865 8.96395 42.9002 8.90581 42.3631 8.90581C41.4182 8.90581 40.6263 9.08895 39.987 9.45432C39.3479 9.82014 38.8337 10.2971 38.4447 10.8858C38.0557 11.4744 37.7777 12.1479 37.6109 12.9058C37.4443 13.6641 37.3609 14.4355 37.3609 15.2202C37.3609 16.0588 37.4443 16.8614 37.6109 17.6281C37.7776 18.3952 38.0646 19.0731 38.4725 19.6615C38.8797 20.2501 39.4126 20.723 40.0704 21.0795C40.7277 21.4366 41.5476 21.6147 42.5298 21.6147C43.0482 21.6147 43.5255 21.5525 43.961 21.4276C44.396 21.3028 44.7807 21.1511 45.1142 20.9724C45.4477 20.7945 45.7395 20.6073 45.9896 20.4109C46.2397 20.2146 46.4481 20.0454 46.6149 19.9024C46.7261 20.0275 46.8554 20.1792 47.0039 20.3573C47.1532 20.5373 47.2923 20.7249 47.4207 20.9192C47.5502 21.1157 47.6614 21.3117 47.7542 21.5076C47.8467 21.7042 47.8931 21.8823 47.8931 22.0426C47.8931 22.2748 47.8467 22.4709 47.7542 22.6314C47.6613 22.792 47.5131 22.9705 47.3096 23.1666ZM61.6309 21.1146C61.6309 22.5323 61.8449 23.5641 62.2739 24.2101C61.9385 24.3355 61.6262 24.4254 61.3373 24.4792C61.0482 24.5331 60.7455 24.5599 60.4287 24.5599C59.7578 24.5599 59.2497 24.4343 58.9051 24.1831C58.5601 23.9321 58.3411 23.5732 58.2482 23.1064C57.8379 23.5196 57.2975 23.8693 56.6266 24.1565C55.9556 24.4431 55.1352 24.587 54.1663 24.587C53.6631 24.587 53.1599 24.5198 52.6567 24.3861C52.1533 24.2513 51.6965 24.0326 51.2866 23.7289C50.8764 23.4245 50.5411 23.0175 50.2802 22.5077C50.019 21.9978 49.8888 21.3763 49.8888 20.6431C49.8888 19.7308 50.1169 18.9882 50.5737 18.4161C51.0303 17.8434 51.6034 17.3919 52.2932 17.0608C52.9826 16.7302 53.7282 16.5025 54.5299 16.377C55.331 16.2517 56.0675 16.1714 56.7384 16.1352C56.9622 16.1175 57.181 16.1082 57.3955 16.1082H57.9965V15.6183C57.9965 14.9286 57.8052 14.4386 57.4234 14.1484C57.0411 13.8582 56.4213 13.7127 55.5642 13.7127C54.7626 13.7127 54.0497 13.8384 53.4254 14.0895C52.8008 14.341 52.1905 14.6278 51.5942 14.9508C51.333 14.6459 51.1232 14.3095 50.9652 13.9415C50.8067 13.5739 50.7275 13.3001 50.7275 13.1205C50.7275 12.8694 50.8717 12.6272 51.1609 12.3937C51.4497 12.1608 51.8459 11.9496 52.3491 11.7612C52.8525 11.5728 53.4299 11.4205 54.0826 11.3036C54.7347 11.1871 55.4245 11.1287 56.1514 11.1287C57.1578 11.1287 58.0105 11.2275 58.7094 11.4248C59.4084 11.6224 59.9768 11.9273 60.4149 12.3399C60.8526 12.753 61.1649 13.2686 61.3514 13.8876C61.5375 14.5068 61.631 15.2293 61.631 16.0544V21.1146H61.6309ZM58.0523 17.9923H57.661C57.5302 17.9923 57.3997 18.0017 57.2696 18.0194C56.8034 18.0555 56.342 18.1092 55.8857 18.1807C55.4287 18.2526 55.0233 18.3783 54.6696 18.5576C54.3153 18.7372 54.0265 18.9706 53.8029 19.2574C53.5792 19.5446 53.4673 19.9127 53.4673 20.3611C53.4673 20.8636 53.6163 21.2895 53.9146 21.6395C54.2125 21.9895 54.7158 22.1645 55.4244 22.1645C55.7782 22.1645 56.1138 22.1199 56.4309 22.0297C56.7475 21.9404 57.0271 21.8237 57.2696 21.6801C57.5116 21.5365 57.7029 21.3796 57.8427 21.2088C57.9824 21.0386 58.0523 20.8817 58.0523 20.738V17.9923H58.0523ZM68.5919 12.6897C68.889 12.3491 69.3538 12.0034 69.9854 11.6534C70.6171 11.3034 71.416 11.1285 72.3823 11.1285C73.07 11.1285 73.7248 11.2407 74.3474 11.4649C74.9694 11.6895 75.5224 12.053 76.0055 12.5551C76.4887 13.0577 76.8741 13.7217 77.1623 14.5469C77.4503 15.3726 77.5944 16.3866 77.5944 17.5885C77.5944 18.9881 77.4269 20.1414 77.0926 21.0474C76.7579 21.9539 76.3263 22.6717 75.797 23.2008C75.2674 23.7302 74.6772 24.1026 74.0272 24.3178C73.3767 24.5331 72.7263 24.6409 72.0762 24.6409C71.5373 24.6409 71.068 24.5825 70.6689 24.466C70.2691 24.3491 69.9301 24.2194 69.6514 24.0756C69.3727 23.9322 69.1592 23.7889 69.0107 23.6449C68.8621 23.5015 68.7691 23.4026 68.732 23.3487V29.9655H64.9297V11.5053C65.0232 11.4877 65.136 11.4696 65.2678 11.4515C65.3806 11.4339 65.512 11.4204 65.6623 11.4111C65.8125 11.4023 65.9909 11.3977 66.1974 11.3977C66.8168 11.3977 67.3428 11.4966 67.7747 11.6938C68.2066 11.8915 68.4793 12.2232 68.5919 12.6897ZM73.6244 17.6692C73.6244 17.1309 73.578 16.6288 73.4854 16.162C73.3928 15.6956 73.2399 15.2918 73.0267 14.9508C72.8136 14.61 72.526 14.3451 72.1648 14.1566C71.8031 13.9682 71.3633 13.8741 70.8446 13.8741C70.0663 13.8741 69.5242 14.0179 69.2183 14.3047C68.9126 14.5919 68.7597 14.9062 68.7597 15.2468V20.9533C68.9078 21.0971 69.1715 21.2673 69.5516 21.4647C69.9317 21.6623 70.3715 21.7606 70.8722 21.7606C71.8174 21.7606 72.5124 21.402 72.9572 20.6841C73.402 19.9664 73.6244 18.9613 73.6244 17.6692ZM80.529 22.2991C80.3983 21.9404 80.3145 21.5633 80.2773 21.1685C80.2398 20.7739 80.2214 20.3793 80.2214 19.984V7.49466C80.3516 7.47705 80.4915 7.45899 80.6408 7.44083C80.7708 7.42322 80.9107 7.40983 81.06 7.40049C81.2091 7.39168 81.3581 7.3871 81.5073 7.3871C81.8053 7.3871 82.1038 7.41406 82.4021 7.46779C82.6999 7.52171 82.9703 7.62936 83.213 7.79075C83.455 7.95223 83.6506 8.17229 83.7999 8.45023C83.949 8.72861 84.0236 9.09209 84.0236 9.54031V11.4514H87.9378V14.1701H84.0236V19.9101C84.0236 21.1618 84.5547 21.7875 85.6172 21.7875C85.8781 21.7875 86.1248 21.7474 86.3581 21.6664C86.591 21.5857 86.8006 21.4961 86.9872 21.3974C87.1734 21.2987 87.3366 21.1955 87.4764 21.0878C87.6162 20.9801 87.7141 20.8995 87.7699 20.8456C88.0495 21.2407 88.2635 21.5826 88.4129 21.8711C88.5619 22.16 88.6366 22.4311 88.6366 22.6844C88.6366 22.9201 88.5389 23.1512 88.343 23.3775C88.1471 23.6038 87.8721 23.8124 87.5181 24.0025C87.164 24.1925 86.7355 24.3465 86.2322 24.4643C85.729 24.5821 85.1789 24.641 84.5827 24.641C83.4268 24.641 82.5277 24.4255 81.8847 23.995C81.2418 23.5641 80.7896 22.9988 80.529 22.2991ZM97.5675 21.9491C98.035 21.9491 98.4465 21.8999 98.8021 21.801C99.1573 21.7027 99.4752 21.5815 99.7558 21.4379C100.036 21.2945 100.28 21.1374 100.485 20.9668C100.691 20.7965 100.878 20.6395 101.047 20.4956C101.271 20.7647 101.505 21.1104 101.748 21.5318C101.991 21.9539 102.113 22.2991 102.113 22.5681C102.113 22.9631 101.879 23.322 101.414 23.6449C101.022 23.9322 100.467 24.179 99.7503 24.385C99.0325 24.5912 98.1889 24.6946 97.2201 24.6946C96.3437 24.6946 95.4818 24.587 94.6341 24.3716C93.7859 24.1564 93.0308 23.7794 92.3695 23.241C91.7076 22.7029 91.1717 21.9807 90.7618 21.0744C90.3517 20.1683 90.1468 19.0245 90.1468 17.6424C90.1468 16.5118 90.3286 15.5387 90.6918 14.722C91.0554 13.9056 91.5398 13.2281 92.146 12.6898C92.7513 12.1515 93.4362 11.757 94.2006 11.5054C94.9647 11.2544 95.7476 11.1286 96.5492 11.1286C97.5928 11.1286 98.4781 11.2859 99.205 11.5996C99.932 11.9138 100.523 12.3356 100.98 12.8648C101.437 13.3941 101.768 13.9998 101.973 14.6816C102.178 15.3637 102.28 16.0813 102.28 16.8349V17.2117C102.28 17.3557 102.276 17.5078 102.266 17.6693C102.257 17.8309 102.248 17.9882 102.238 18.1403C102.229 18.2932 102.215 18.4141 102.197 18.5038H93.949C94.0238 19.4908 94.3417 20.3117 94.9027 20.9668C95.4633 21.622 96.3518 21.9491 97.5675 21.9491ZM98.8415 16.4849C98.8415 15.6236 98.6679 14.9238 98.3212 14.3854C97.9744 13.8472 97.3508 13.5779 96.4516 13.5779C95.6826 13.5779 95.0688 13.8337 94.6097 14.3451C94.1501 14.8566 93.921 15.5698 93.921 16.4848H98.8415V16.4849ZM108.897 12.7577C109.009 12.5976 109.158 12.4197 109.344 12.2236C109.53 12.0277 109.759 11.8497 110.029 11.6896C110.299 11.5294 110.598 11.3956 110.924 11.2888C111.25 11.182 111.599 11.1286 111.973 11.1286C112.196 11.1286 112.434 11.1466 112.685 11.182C112.937 11.2177 113.17 11.2846 113.384 11.3822C113.598 11.4802 113.771 11.6135 113.901 11.7826C114.032 11.9517 114.097 12.1607 114.097 12.4097C114.097 12.8012 113.994 13.2509 113.79 13.7585C113.584 14.2666 113.38 14.6998 113.175 15.0585C112.857 14.8073 112.541 14.6144 112.224 14.4798C111.907 14.3453 111.534 14.2779 111.106 14.2779C110.528 14.2779 110.043 14.4399 109.652 14.7637C109.26 15.0875 109.065 15.4745 109.065 15.9244V24.638H105.263V11.5053C105.356 11.4877 105.467 11.4696 105.598 11.4515C105.71 11.4339 105.84 11.4204 105.989 11.4111C106.139 11.4023 106.315 11.3977 106.521 11.3977C107.117 11.3977 107.634 11.509 108.072 11.7313C108.51 11.9532 108.785 12.2956 108.897 12.7577ZM119.707 12.7577C119.819 12.5976 119.968 12.4197 120.155 12.2236C120.341 12.0277 120.569 11.8497 120.84 11.6896C121.11 11.5294 121.408 11.3956 121.734 11.2888C122.06 11.182 122.41 11.1286 122.783 11.1286C123.006 11.1286 123.244 11.1466 123.495 11.182C123.747 11.2177 123.98 11.2846 124.194 11.3822C124.409 11.4802 124.581 11.6135 124.712 11.7826C124.842 11.9517 124.907 12.1607 124.907 12.4097C124.907 12.8012 124.805 13.2509 124.6 13.7585C124.394 14.2666 124.19 14.6998 123.985 15.0585C123.668 14.8073 123.351 14.6144 123.034 14.4798C122.717 14.3453 122.344 14.2779 121.916 14.2779C121.338 14.2779 120.853 14.4399 120.462 14.7637C120.071 15.0875 119.875 15.4745 119.875 15.9244V24.638H116.073V11.5053C116.166 11.4877 116.278 11.4696 116.408 11.4515C116.52 11.4339 116.651 11.4204 116.8 11.4111C116.949 11.4023 117.126 11.3977 117.331 11.3977C117.927 11.3977 118.444 11.509 118.882 11.7313C119.32 11.9532 119.595 12.2956 119.707 12.7577ZM137.852 21.1146C137.852 22.5323 138.066 23.5641 138.495 24.2101C138.159 24.3355 137.847 24.4254 137.558 24.4792C137.269 24.5331 136.966 24.5599 136.65 24.5599C135.979 24.5599 135.471 24.4343 135.126 24.1831C134.781 23.9321 134.562 23.5732 134.469 23.1064C134.059 23.5196 133.518 23.8693 132.847 24.1565C132.177 24.4431 131.356 24.587 130.387 24.587C129.884 24.587 129.381 24.5198 128.877 24.3861C128.374 24.2513 127.917 24.0326 127.508 23.7289C127.097 23.4245 126.762 23.0175 126.501 22.5077C126.24 21.9978 126.11 21.3763 126.11 20.6431C126.11 19.7308 126.338 18.9882 126.795 18.4161C127.251 17.8434 127.824 17.3919 128.514 17.0608C129.203 16.7302 129.949 16.5025 130.751 16.377C131.552 16.2517 132.288 16.1714 132.959 16.1352C133.183 16.1175 133.402 16.1082 133.617 16.1082H134.217V15.6183C134.217 14.9286 134.026 14.4386 133.644 14.1484C133.262 13.8582 132.642 13.7127 131.785 13.7127C130.984 13.7127 130.271 13.8384 129.646 14.0895C129.022 14.341 128.411 14.6278 127.815 14.9508C127.554 14.6459 127.344 14.3095 127.186 13.9415C127.028 13.5739 126.948 13.3001 126.948 13.1205C126.948 12.8694 127.093 12.6272 127.382 12.3937C127.671 12.1608 128.067 11.9496 128.57 11.7612C129.073 11.5728 129.651 11.4205 130.303 11.3036C130.956 11.1871 131.645 11.1287 132.372 11.1287C133.379 11.1287 134.231 11.2275 134.93 11.4248C135.629 11.6224 136.198 11.9273 136.636 12.3399C137.073 12.753 137.386 13.2686 137.572 13.8876C137.758 14.5068 137.852 15.2293 137.852 16.0544V21.1146ZM134.273 17.9923H133.882C133.751 17.9923 133.621 18.0017 133.491 18.0194C133.024 18.0555 132.563 18.1092 132.107 18.1807C131.65 18.2526 131.244 18.3783 130.89 18.5576C130.536 18.7372 130.247 18.9706 130.024 19.2574C129.8 19.5446 129.688 19.9127 129.688 20.3611C129.688 20.8636 129.837 21.2895 130.136 21.6395C130.433 21.9895 130.937 22.1645 131.645 22.1645C131.999 22.1645 132.335 22.1199 132.652 22.0297C132.969 21.9404 133.248 21.8237 133.491 21.6801C133.732 21.5365 133.924 21.3796 134.064 21.2088C134.203 21.0386 134.273 20.8817 134.273 20.738V17.9923H134.273Z" fill="#68C5ED"/>
</svg>
