<svg enable-background="new 0 0 130 43" viewBox="0 0 130 43" xmlns="http://www.w3.org/2000/svg" xmlns:xlink="http://www.w3.org/1999/xlink"><clipPath id="a"><path d="m0 0h130v43h-130z"/></clipPath><linearGradient id="b" gradientUnits="userSpaceOnUse" x1="16.1733" x2="9.871" y1="10.657" y2="32.1854"><stop offset="0" stop-color="#008fd8"/><stop offset=".03" stop-color="#0094db"/><stop offset=".18" stop-color="#00a7e7"/><stop offset=".36" stop-color="#00b5ef"/><stop offset=".59" stop-color="#00bdf4"/><stop offset="1" stop-color="#00bff5"/></linearGradient><linearGradient id="c" gradientUnits="userSpaceOnUse" x1="12.2108" x2="35.7752" y1="27.5752" y2="10.8975"><stop offset="0" stop-color="#0115b6"/><stop offset="1" stop-color="#006ee8"/></linearGradient><g clip-path="url(#a)" clip-rule="evenodd" fill-rule="evenodd"><path d="m62.8 17.2c-1.1 0-2.2.2-3.1.8-1 .5-1.8 1.3-2.3 2.2-.6.9-.9 2-.9 3.1s.2 2.2.8 3.2c.5 1 1.3 1.8 2.2 2.4s2 .9 3.1.9 2.2-.2 3.2-.7 1.8-1.3 2.4-2.2h2.8c-.8 1.8-2.2 3.3-3.9 4.3s-3.8 1.2-5.8.8-3.7-1.4-5-3c-1.3-1.5-2-3.5-2-5.5s.7-3.9 1.9-5.5 3-2.6 4.9-3.1c2-.4 4-.2 5.8.7s3.2 2.4 4 4.2h-2.8c-.6-.8-1.3-1.5-2.2-2-1.1-.4-2.1-.6-3.1-.6zm60.5 0h-.9c-.7 0-1.4.1-2 .3s-1.2.6-1.7 1.1c-1 1.1-1.3 3.1-1.3 4.5v8.8h-2.4v-8.8c0-2.2.4-4.5 1.9-6.2s3.6-2.1 5.7-2.1h.7zm-42.2 12.6c1.7 0 3.2-.7 4.4-1.9s1.8-2.8 1.8-4.4c0-.8-.1-1.6-.5-2.4-.3-.8-.8-1.5-1.3-2-.6-.6-1.3-1-2-1.4-.8-.3-1.6-.5-2.4-.5-1.6.1-3.2.7-4.3 1.9s-1.8 2.7-1.8 4.4c0 1.6.6 3.2 1.8 4.4 1.2 1.1 2.7 1.8 4.3 1.9zm8.7-6.3v8.4h-2.5v-2.5c-.8.8-1.8 1.5-2.8 2-1.1.5-2.2.7-3.4.7-1.7 0-3.4-.5-4.8-1.5s-2.5-2.3-3.2-3.9-.8-3.3-.5-5 1.2-3.2 2.4-4.5c1.2-1.2 2.8-2 4.5-2.4 1.7-.3 3.4-.2 5 .5s2.9 1.8 3.9 3.2c.9 1.6 1.4 3.3 1.4 5zm7.2 8.7c-3.4 0-5.5-2.4-5.5-5.7h2.5c0 2 .9 3.3 3.1 3.3 1.6 0 3-.7 3-2.5 0-2.1-1.8-2.6-3.5-3.1-2.5-.8-4.7-1.9-4.7-4.9 0-2.8 2.4-4.5 5.1-4.5 3.3 0 5 2.2 5.1 5.3h-2.5c0-1.7-.6-2.9-2.6-2.9-1.3 0-2.6.7-2.6 2.1 0 1.9 1.8 2.3 3.3 2.7 2.7.8 4.9 2 4.9 5.3 0 3.1-2.7 4.9-5.6 4.9zm15.8-15h-4.4v6.6c0 3.1 1.3 5.3 4.4 5.9v2.4c-4.5-.8-7-3.6-7-8.2v-6.7h-2.3v-2.4h2.3v-4h2.5v4h4.4z" fill="#333"/><path d="m26.9 21.5c0-2.7-6.1-8.3-12.1-11.6-.8 1.3-1.4 2.6-1.8 4 4 2.2 7.8 5.8 7.8 7.6 0 2.7-9.1 9.7-13.5 9.7-3.1 0-4.7-6.1-4.7-9.7s1.6-9.7 4.7-9.7c.6 0 1.2.1 1.8.3.4-1.4.8-2.8 1.3-4.2-1-.4-2.2-.7-3.4-.7-4.6 0-7 9.1-7 14.3s2.4 14.3 7 14.3c6.5 0 19.9-10.3 19.9-14.3z" fill="url(#b)"/><path d="m7.9 21.5c0 3.2.5 6.3 1.2 9.4 1.4-.4 2.7-1 3.9-1.8-.8-2.5-1.1-5-1.1-7.6 0-4 1-9.1 3.5-12.4 1-1.3 2.2-2.1 3.6-2.1 6.6 0 20.3 10.5 20.3 14.5s-13.7 14.5-20.3 14.5c-1.4 0-2.6-.8-3.6-2.2-.2-.2-.4-.5-.5-.8-1.4.8-2.9 1.5-4.4 2 1.8 4.4 4.4 7.9 7.9 7.9 9.8 0 30-15.5 30-21.5s-20.3-21.4-30.1-21.4c-6.8 0-10.4 13.6-10.4 21.5z" fill="url(#c)"/></g></svg>