<svg width="24" height="24" viewBox="0 0 24 24" fill="none" xmlns="http://www.w3.org/2000/svg">
<path d="M19.3125 0H4.6875C2.10281 0 0 2.10281 0 4.6875V14.0625C0 16.6472 2.10281 18.75 4.6875 18.75H19.3125C21.8972 18.75 24 16.6472 24 14.0625V4.6875C24 2.10281 21.8972 0 19.3125 0ZM22.125 14.0625C22.125 15.6133 20.8633 16.875 19.3125 16.875H4.6875C3.13669 16.875 1.875 15.6133 1.875 14.0625V4.6875C1.875 3.13669 3.13669 1.875 4.6875 1.875H19.3125C20.8633 1.875 22.125 3.13669 22.125 4.6875V14.0625Z" fill="white"/>
<path d="M12 20.25C11.4822 20.25 11.0625 20.6697 11.0625 21.1875V22.125H8.25C7.73222 22.125 7.3125 22.5447 7.3125 23.0625C7.3125 23.5803 7.73222 24 8.25 24H15.75C16.2678 24 16.6875 23.5803 16.6875 23.0625C16.6875 22.5447 16.2678 22.125 15.75 22.125H12.9375V21.1875C12.9375 20.6697 12.5178 20.25 12 20.25Z" fill="white"/>
<path d="M19.3125 11.25H4.6875C4.16972 11.25 3.75 11.6697 3.75 12.1875C3.75 12.7053 4.16972 13.125 4.6875 13.125H19.3125C19.8303 13.125 20.25 12.7053 20.25 12.1875C20.25 11.6697 19.8303 11.25 19.3125 11.25Z" fill="white"/>
</svg>
