<svg width="16" height="17" viewBox="0 0 16 17" fill="none" xmlns="http://www.w3.org/2000/svg">
<path fill-rule="evenodd" clip-rule="evenodd" d="M5.19999 1.8999H5.17486H5.17485C4.63615 1.8999 4.19559 1.89989 3.83754 1.92914C3.46693 1.95942 3.13221 2.02401 2.81962 2.18329C2.3304 2.43256 1.93265 2.83031 1.68338 3.31953C1.5241 3.63212 1.45952 3.96684 1.42924 4.33745C1.39998 4.6955 1.39999 5.13606 1.39999 5.67476V5.67477V5.6999V8.2999V8.32504V8.32505C1.39999 8.86375 1.39998 9.30431 1.42924 9.66236C1.45952 10.033 1.5241 10.3677 1.68338 10.6803C1.93265 11.1695 2.3304 11.5672 2.81962 11.8165C3.13221 11.9758 3.46693 12.0404 3.83754 12.0707C4.00629 12.0844 4.19338 12.0917 4.40042 12.0956C4.40337 12.604 4.4225 12.9955 4.53798 13.3356C4.7978 14.1011 5.39884 14.7021 6.16425 14.9619C6.57276 15.1006 7.05513 15.1003 7.72536 15.0999L7.83333 15.0999H10.8H10.8251H10.8252C11.3639 15.0999 11.8044 15.0999 12.1624 15.0707C12.5331 15.0404 12.8678 14.9758 13.1804 14.8165C13.6696 14.5672 14.0673 14.1695 14.3166 13.6803C14.4759 13.3677 14.5405 13.033 14.5708 12.6624C14.6 12.3043 14.6 11.8638 14.6 11.3251V11.325V11.2999V8.33324L14.6 8.22526C14.6004 7.55504 14.6007 7.07267 14.462 6.66416C14.2022 5.89874 13.6012 5.29771 12.8357 5.03789C12.4955 4.92241 12.1041 4.90328 11.5957 4.90033C11.5918 4.69328 11.5845 4.5062 11.5708 4.33745C11.5405 3.96684 11.4759 3.63212 11.3166 3.31953C11.0673 2.83031 10.6696 2.43256 10.1804 2.18329C9.86778 2.02401 9.53306 1.95942 9.16245 1.92914C8.8044 1.89989 8.36384 1.8999 7.82514 1.8999H7.82513H7.79999H5.19999ZM11.6 6.10128V8.2999V8.32502V8.32509C11.6 8.86377 11.6 9.30432 11.5708 9.66236C11.5405 10.033 11.4759 10.3677 11.3166 10.6803C11.0673 11.1695 10.6696 11.5672 10.1804 11.8165C9.86778 11.9758 9.53306 12.0404 9.16245 12.0707C8.80441 12.0999 8.36386 12.0999 7.82518 12.0999H7.82511H7.79999H5.60138C5.60558 12.5943 5.62135 12.7939 5.67429 12.9499C5.8142 13.3621 6.13783 13.6857 6.54998 13.8256C6.74521 13.8919 7.00889 13.8999 7.83333 13.8999H10.8C11.3699 13.8999 11.7613 13.8994 12.0647 13.8746C12.3611 13.8504 12.5203 13.806 12.6356 13.7473C12.899 13.6131 13.1132 13.3989 13.2474 13.1355C13.3061 13.0203 13.3505 12.861 13.3747 12.5646C13.3995 12.2612 13.4 11.8699 13.4 11.2999V8.33324C13.4 7.5088 13.392 7.24512 13.3257 7.04989C13.1858 6.63774 12.8622 6.31411 12.45 6.1742C12.294 6.12126 12.0944 6.10549 11.6 6.10128ZM3.36441 3.25249C3.47964 3.19378 3.63886 3.14938 3.93526 3.12516C4.23866 3.10037 4.63004 3.0999 5.19999 3.0999H7.79999C8.36995 3.0999 8.76133 3.10037 9.06473 3.12516C9.36113 3.14938 9.52035 3.19378 9.63558 3.25249C9.89901 3.38672 10.1132 3.60089 10.2474 3.86432C10.3061 3.97955 10.3505 4.13877 10.3747 4.43517C10.3995 4.73857 10.4 5.12995 10.4 5.6999V8.2999C10.4 8.86986 10.3995 9.26124 10.3747 9.56464C10.3505 9.86104 10.3061 10.0203 10.2474 10.1355C10.1132 10.3989 9.89901 10.6131 9.63558 10.7473C9.52035 10.806 9.36113 10.8504 9.06473 10.8746C8.76133 10.8994 8.36995 10.8999 7.79999 10.8999H5.19999C4.63004 10.8999 4.23866 10.8994 3.93526 10.8746C3.63886 10.8504 3.47964 10.806 3.36441 10.7473C3.10098 10.6131 2.88681 10.3989 2.75259 10.1355C2.69387 10.0203 2.64947 9.86104 2.62525 9.56464C2.60046 9.26124 2.59999 8.86986 2.59999 8.2999V5.6999C2.59999 5.12995 2.60046 4.73857 2.62525 4.43517C2.64947 4.13877 2.69387 3.97955 2.75259 3.86432C2.88681 3.60089 3.10098 3.38672 3.36441 3.25249Z" fill="#232D4D"/>
</svg>
