<svg width="970" height="5" viewBox="0 0 970 5" fill="none" xmlns="http://www.w3.org/2000/svg">
<path d="M958.575 0C917.444 0 895.736 0.71423 876.313 1.30947C856.89 1.90471 838.61 2.61911 800.907 2.61911C763.204 2.61911 744.923 2.02375 725.501 1.30947C704.935 0.59518 684.37 0 642.097 0C600.966 0 579.258 0.71423 559.835 1.30947C540.412 1.90471 522.132 2.61911 484.429 2.61911C446.726 2.61911 428.445 2.02375 409.022 1.30947C388.457 0.59518 367.892 0 326.761 0C285.63 0 263.922 0.71423 244.499 1.30947C225.077 1.90471 206.796 2.61911 169.093 2.61911C131.39 2.61911 113.11 2.02375 93.6867 1.30947C73.1214 0.59518 52.5559 0 11.4252 0C4.57004 0 0 0.476249 0 1.19053C0 1.90482 4.57004 2.38089 11.4252 2.38089C49.1283 2.38089 67.4087 2.97625 86.8315 3.69053C107.397 4.40482 127.962 5 169.093 5C210.224 5 231.932 4.28577 251.354 3.69053C270.777 3.09529 289.058 2.38089 326.761 2.38089C364.464 2.38089 382.744 2.97625 402.167 3.69053C422.733 4.40482 443.298 5 484.429 5C525.559 5 547.267 4.28577 566.69 3.69053C586.113 3.09529 604.393 2.38089 642.097 2.38089C679.8 2.38089 698.08 2.97625 717.503 3.69053C738.068 4.40482 758.634 5 799.764 5C840.895 5 862.603 4.28577 883.168 3.69053C902.591 3.09529 920.872 2.38089 958.575 2.38089C965.43 2.38089 970 1.90482 970 1.19053C970 0.476249 965.43 0 958.575 0Z" fill="#242526"/>
</svg>
