<svg fill="none" height="8" viewBox="0 0 12 8" width="12" xmlns="http://www.w3.org/2000/svg"><path d="m5.77734 7.625c.14063.17578.35157.24609.59766.24609.21094 0 .42188-.07031.59766-.24609l4.78124-4.78125c.1406-.14063.2461-.35156.2461-.59766 0-.21093-.1055-.42187-.2461-.59765l-.8086-.77344c-.1758-.140625-.3867-.246094-.5976-.246094-.2461 0-.45708.105469-.5977.246094l-3.375 3.375-3.375-3.375c-.17578-.140625-.38672-.246094-.59766-.246094-.24609 0-.45703.105469-.59765.246094l-.808596.77344c-.175782.17578-.246094.38672-.246094.59765 0 .2461.070312.45703.246094.59766z" fill="#005be5"/></svg>