<svg fill="none" height="6" viewBox="0 0 11 6" width="11" xmlns="http://www.w3.org/2000/svg"><path d="m10.6975.733259c.067.066964.1005.143973.1005.231026 0 .087055-.0335.164065-.1005.231025l-4.68076 4.68081c-.06696.06696-.14397.10044-.23103.10044-.08705 0-.16406-.03348-.23102-.10044l-4.680806-4.68081c-.066964-.06696-.100446-.14397-.100446-.231025 0-.087053.033482-.164062.100446-.231026l.502236-.502233c.06696-.066964.14397-.100446.23102-.100446.08706 0 .16407.033482.23103.100446l3.94754 3.947544 3.94755-3.947544c.06696-.066964.14397-.100446.23103-.100446.08701 0 .16401.033482.23101.100446z" fill="#fff"/></svg>