<svg width="28" height="28" viewBox="0 0 28 28" fill="none" xmlns="http://www.w3.org/2000/svg">
<path fill-rule="evenodd" clip-rule="evenodd" d="M11.0414 3.29067C12.9346 2.40311 15.0647 2.40311 16.9578 3.29067L24.7642 6.95049C25.9919 7.52605 26.5413 8.77593 26.5413 9.91669C26.5413 11.0575 25.9919 12.3073 24.7642 12.8829L23.0413 13.6906V19.3963C23.0413 20.8582 22.3084 22.2697 20.974 23.0086C20.097 23.4943 18.9445 24.079 17.7316 24.5443C16.5331 25.0041 15.2059 25.375 13.9997 25.375C12.7935 25.375 11.4663 25.0041 10.2677 24.5443C9.05486 24.079 7.90233 23.4943 7.02532 23.0086C5.69097 22.2697 4.95801 20.8582 4.95801 19.3963V13.6906L3.23511 12.8828L3.20801 12.87V16.3333C3.20801 16.8166 2.81626 17.2083 2.33301 17.2083C1.84976 17.2083 1.45801 16.8166 1.45801 16.3333V9.91667C1.45801 8.7759 2.00745 7.526 3.23512 6.95044L11.0414 3.29067ZM6.70801 14.511V19.3963C6.70801 20.2865 7.14988 21.0772 7.87314 21.4777C8.70923 21.9407 9.78426 22.4845 10.8945 22.9104C12.0191 23.3418 13.1106 23.625 13.9997 23.625C14.8888 23.625 15.9803 23.3418 17.1048 22.9104C18.2151 22.4845 19.2901 21.9407 20.1262 21.4777C20.8495 21.0772 21.2913 20.2865 21.2913 19.3963V14.5111L16.9579 16.5427C15.0648 17.4302 12.9347 17.4302 11.0415 16.5427L6.70801 14.511ZM3.97797 11.2983C3.50759 11.0778 3.20801 10.5518 3.20801 9.91664C3.20801 9.2815 3.5076 8.75547 3.97797 8.53495L11.7843 4.87518C13.2068 4.20827 14.7925 4.20827 16.215 4.87518L24.0214 8.535C24.4918 8.75552 24.7913 9.28155 24.7913 9.91669C24.7913 10.5518 24.4917 11.0779 24.0214 11.2984L16.2151 14.9582C14.7926 15.6251 13.2069 15.6251 11.7844 14.9582L3.97797 11.2983Z" fill="#242526"/>
</svg>
