<svg width="28" height="28" viewBox="0 0 28 28" fill="none" xmlns="http://www.w3.org/2000/svg">
<path fill-rule="evenodd" clip-rule="evenodd" d="M13.9332 1.45834H14.0671C16.7602 1.45832 18.8708 1.45831 20.5175 1.67971C22.203 1.90632 23.5331 2.37922 24.577 3.42316C25.621 4.46711 26.0938 5.79713 26.3205 7.48266C26.5419 9.1294 26.5418 11.2399 26.5418 13.9331V14.0669C26.5418 16.7601 26.5419 18.8706 26.3205 20.5173C26.0938 22.2029 25.621 23.5329 24.577 24.5768C23.5331 25.6208 22.203 26.0937 20.5175 26.3203C18.8708 26.5417 16.7602 26.5417 14.0671 26.5417H13.9332C11.2401 26.5417 9.12956 26.5417 7.48282 26.3203C5.79729 26.0937 4.46727 25.6208 3.42332 24.5768C2.37938 23.5329 1.90648 22.2029 1.67987 20.5173C1.45847 18.8706 1.45848 16.7601 1.4585 14.0669V13.9331C1.45848 11.2399 1.45847 9.12939 1.67987 7.48266C1.90648 5.79713 2.37938 4.46711 3.42332 3.42316C4.46727 2.37922 5.79729 1.90632 7.48282 1.67971C9.12955 1.45831 11.2401 1.45832 13.9332 1.45834ZM7.716 3.4141C6.22453 3.61462 5.32536 3.996 4.66076 4.6606C3.99616 5.3252 3.61479 6.22437 3.41426 7.71584C3.38258 7.95146 3.35578 8.19858 3.33311 8.45834H7.6865L11.0186 3.22216C9.70323 3.24234 8.62422 3.292 7.716 3.4141ZM13.0752 3.20871C13.0535 3.2698 13.0246 3.32942 12.9884 3.38644L9.76079 8.45834H15.2698L18.5722 3.2689C17.3318 3.20915 15.8373 3.20834 14.0002 3.20834C13.6817 3.20834 13.3735 3.20836 13.0752 3.20871ZM20.5314 3.44982L17.3441 8.45834H24.6672C24.6445 8.19858 24.6177 7.95146 24.5861 7.71584C24.3855 6.22437 24.0042 5.3252 23.3396 4.6606C22.7125 4.03353 21.8766 3.6586 20.5314 3.44982ZM24.7607 10.2083H15.7633C15.754 10.2085 15.7447 10.2085 15.7354 10.2083H8.17992C8.17065 10.2085 8.16137 10.2085 8.15209 10.2083H3.23968C3.20902 11.2837 3.2085 12.5325 3.2085 14C3.2085 16.7746 3.21036 18.7675 3.41426 20.2842C3.61479 21.7756 3.99616 22.6748 4.66076 23.3394C5.32536 24.004 6.22453 24.3854 7.716 24.5859C9.23265 24.7898 11.2256 24.7917 14.0002 24.7917C16.7748 24.7917 18.7677 24.7898 20.2843 24.5859C21.7758 24.3854 22.675 24.004 23.3396 23.3394C24.0042 22.6748 24.3855 21.7756 24.5861 20.2842C24.79 18.7675 24.7918 16.7746 24.7918 14C24.7918 12.5325 24.7913 11.2837 24.7607 10.2083ZM15.5965 13.9081L15.715 13.9846C16.4381 14.4511 17.0642 14.855 17.5006 15.2409C17.9648 15.6515 18.3752 16.1801 18.3752 16.9167C18.3752 17.6533 17.9648 18.1818 17.5006 18.5924C17.0642 18.9783 16.4381 19.3822 15.715 19.8487L15.5965 19.9252C14.8659 20.3967 14.2311 20.8064 13.7037 21.0405C13.155 21.2841 12.452 21.4597 11.7814 21.0337C11.146 20.63 10.9533 19.9409 10.8725 19.3343C10.7918 18.7285 10.7918 17.9286 10.7918 16.9808V16.8526C10.7918 15.9048 10.7918 15.1048 10.8725 14.4991C10.9533 13.8924 11.146 13.2034 11.7814 12.7997C12.452 12.3737 13.155 12.5492 13.7037 12.7928C14.2311 13.027 14.8659 13.4367 15.5965 13.9081ZM12.6677 14.2936C12.667 14.2927 12.6725 14.2913 12.6862 14.2921C12.6753 14.295 12.6684 14.2946 12.6677 14.2936ZM12.7135 14.2954C12.7603 14.3034 12.8474 14.3273 12.9935 14.3923C13.3804 14.564 13.8992 14.8956 14.7087 15.418C15.506 15.9324 16.0168 16.2649 16.3412 16.5518C16.64 16.816 16.6263 16.9087 16.6252 16.9162C16.6263 16.9237 16.64 17.0173 16.3412 17.2815C16.0168 17.5685 15.506 17.9009 14.7087 18.4154C13.8992 18.9377 13.3804 19.2693 12.9935 19.4411C12.8474 19.506 12.7603 19.5299 12.7134 19.5379C12.6875 19.488 12.6423 19.3673 12.6071 19.1031C12.5437 18.6272 12.5418 17.9458 12.5418 16.9167C12.5418 15.8875 12.5437 15.2061 12.6071 14.7302C12.6423 14.466 12.6875 14.3453 12.7135 14.2954ZM12.6677 19.5397C12.6685 19.5388 12.6753 19.5383 12.6862 19.5413C12.6725 19.5421 12.667 19.5406 12.6677 19.5397ZM12.7286 19.5629C12.7326 19.5662 12.7343 19.5686 12.7342 19.5689C12.7341 19.5692 12.7321 19.5675 12.7286 19.5629ZM12.7286 14.2704C12.7321 14.2658 12.7341 14.2641 12.7342 14.2644C12.7343 14.2648 12.7326 14.2671 12.7286 14.2704Z" fill="#242526"/>
<path d="M15.7152 13.9846C16.4383 14.4511 17.0644 14.855 17.5007 15.2409C17.965 15.6515 18.3753 16.1801 18.3753 16.9167C18.3753 17.6532 17.965 18.1818 17.5007 18.5924C17.0644 18.9783 16.4383 19.3822 15.7152 19.8487L15.5966 19.9252C14.8661 20.3966 14.2312 20.8063 13.7039 21.0405C13.1552 21.2841 12.4521 21.4597 11.7816 21.0337C11.1462 20.63 10.9535 19.9409 10.8726 19.3343C10.7919 18.7285 10.792 17.9286 10.792 16.9808V16.9808V16.8526V16.8525C10.792 15.9047 10.7919 15.1048 10.8726 14.499C10.9535 13.8924 11.1462 13.2033 11.7816 12.7996C12.4521 12.3737 13.1552 12.5492 13.7039 12.7928C14.2312 13.027 14.8661 13.4367 15.5966 13.9081L15.5966 13.9081L15.7152 13.9846L15.7152 13.9846Z" fill="#0062FF"/>
</svg>
