<svg width="130" height="56" viewBox="0 0 130 56" fill="none" xmlns="http://www.w3.org/2000/svg">
<path d="M86.3447 9.89943V40.7941H95.6099V36.0737H92.5482V5.19345L86.3438 5.19429L86.3447 9.89943Z" fill="#F8272C"/>
<path d="M5.89062 36.0737H9.04021V21.1684H5.89062V17.0693L9.04021 16.5505V12.4011C9.04021 7.37485 10.1325 5.19359 16.5319 5.19359C17.9141 5.19359 19.5523 5.39801 20.9867 5.65683L20.1365 10.7093C19.1651 10.5552 18.6833 10.5278 18.0693 10.5278C15.8147 10.5278 15.2447 10.7531 15.2447 12.9595V16.5505H19.926V21.1684H15.2447V36.0737H18.3614V40.7934L5.89078 40.7947V36.0737H5.89062Z" fill="#F8272C"/>
<path d="M83.1884 34.582C82.2179 34.7871 81.3693 34.7624 80.7552 34.7776C78.2026 34.8405 78.4231 34.0002 78.4231 31.5895V21.1685H83.2818V16.5505H78.4231V5.19345H72.2188V32.8779C72.2188 38.3134 73.558 40.7941 79.3949 40.7941C80.7773 40.7941 82.6768 40.4378 84.1109 40.1301L83.1884 34.582Z" fill="#F8272C"/>
<path d="M121.731 36.0991C123.034 36.0991 124.09 37.1372 124.09 38.4433C124.09 39.749 123.034 40.7869 121.731 40.7869C120.427 40.7869 119.377 39.749 119.377 38.4433C119.377 37.1372 120.427 36.0991 121.731 36.0991ZM121.731 40.4185C122.814 40.4185 123.696 39.528 123.696 38.4433C123.696 37.358 122.814 36.4944 121.731 36.4944C120.648 36.4944 119.771 37.358 119.771 38.4433C119.771 39.5279 120.648 40.4185 121.731 40.4185ZM122.165 39.5948L121.69 38.8984H121.363V39.5948H120.835V37.2909H121.797C122.366 37.2909 122.72 37.5791 122.72 38.0885C122.72 38.4629 122.533 38.7176 122.239 38.8045L122.814 39.5948H122.165V39.5948ZM121.363 38.4362H121.784C122.025 38.4362 122.185 38.3426 122.185 38.0885C122.185 37.8474 122.025 37.7532 121.797 37.7532H121.363V38.4362H121.363Z" fill="#F8272C"/>
<path d="M64.4741 21.16V20.3333C62.5971 19.9903 60.7332 19.9854 59.7221 19.9854C56.8348 19.9854 56.4828 21.519 56.4828 22.3503C56.4828 23.5264 56.8834 24.1623 60.0114 24.8473C64.5836 25.8754 69.1755 26.9481 69.1755 32.6267C69.1755 38.012 66.4084 40.7941 60.5839 40.7941C56.6863 40.7941 52.9045 39.9561 50.019 39.2227V34.582H54.7172L54.7145 35.4065C56.7363 35.7976 58.8562 35.7585 59.9629 35.7585C63.0427 35.7585 63.541 34.1 63.541 33.2183C63.541 31.9946 62.6577 31.4069 59.7709 30.8206C54.332 29.8897 50.0156 28.0299 50.0156 22.4962C50.0156 17.2584 53.5132 15.2037 59.3377 15.2037C63.2838 15.2037 66.2841 15.8167 69.1712 16.5505V21.16H64.4741Z" fill="#F8272C"/>
<path d="M35.9285 25.2391L35.4563 24.766L33.0585 26.859C32.9375 26.8156 32.808 26.7906 32.6728 26.7906C32.0258 26.7906 31.502 27.3308 31.502 27.9963C31.502 28.6626 32.0258 29.2025 32.6728 29.2025C33.3195 29.2025 33.8445 28.6626 33.8445 27.9963C33.8445 27.8699 33.8254 27.7481 33.7903 27.6336L35.9285 25.2391Z" fill="#F8272C"/>
<path d="M45.4326 34.582L45.4285 15.2441H39.2243V17.0576C37.9464 16.2898 36.523 15.7407 35.0059 15.4592H35.041V13.3132H35.798V11.735H29.5509V13.3132H30.3078V15.4592H30.3508C24.4168 16.5534 19.9199 21.7579 19.9199 28.0179C19.9199 35.0728 25.6297 40.7918 32.6732 40.7918C35.0771 40.7918 37.3252 40.1247 39.2444 38.9666L40.3621 40.7941H46.9155V34.5819H45.4326V34.582ZM33.0448 34.5679V33.8374H32.3015V34.5659C28.9716 34.3715 26.3082 31.6919 26.1344 28.3512H26.8733V27.6067H26.1382C26.3357 24.2892 28.9882 21.6351 32.3015 21.4416V22.1738H33.0448V21.4395C36.3108 21.6143 38.9416 24.1803 39.2259 27.4212V27.6347H38.4811V28.3792H39.226L39.2261 28.5831C38.9434 31.8255 36.3119 34.3931 33.0448 34.5679Z" fill="#F8272C"/>
<path d="M111.312 16.5505H124.109V21.1639H121.05L113.202 40.5026C110.953 45.935 107.258 51.048 101.632 51.048C100.249 51.048 98.4069 50.8945 97.1298 50.5871L97.691 44.9469C98.5105 45.1004 99.5838 45.2014 100.147 45.2014C102.756 45.2014 105.699 43.5822 106.62 40.7628L98.6681 21.1641H95.6094V16.5506H108.412V21.1641H105.354L109.859 32.2652L114.364 21.1641H111.312V16.5505H111.312Z" fill="#F8272C"/>
</svg>
