<svg fill="none" height="90" viewBox="0 0 1440 90" width="1440" xmlns="http://www.w3.org/2000/svg"><path clip-rule="evenodd" d="m0 69.5374s44.8522 3.297 66.0502 3.861c8.4987.2261 24.0892-3.8547 32.3247-3.861 7.0681-.0054 27.5911 3.6461 33.7901 3.861 18.648.6466 20.379-1.7805 39.304-3.861 22.437-2.4667 48.321 10.2655 66.105 10.3178 42.646.1252 65.873-8.2223 79.581-8.2223h37.879 76.728c21.853 0 22.339-2.0955 45.163-2.0955s58.76 2.0955 58.76 2.0955l12.626 8.2223s20.94-6.784 48.563-6.784h57.577c15.544 0 63.071 6.784 108.388 6.784s110.996-6.784 118.202-6.784 29.071 6.784 29.071 6.784h34.467 40.793l29.138-6.784 11.88 6.784h18.41 37.7l59.24 10.1448 21.33-10.1448s9.75 10.1448 16.55 10.1448h12.14 40.15s5.01-10.1448 11.81-10.1448h33.02l22.34 10.1448s57.53-10.1448 71.68-10.1448h59.97l9.27-79.8552h-1440z" fill="#e5f8fe" fill-rule="evenodd"/></svg>