<svg fill="none" height="91" viewBox="0 0 1440 91" width="1440" xmlns="http://www.w3.org/2000/svg"><path clip-rule="evenodd" d="m1440 20.5294s-44.85-3.3078-66.05-3.8736c-8.5-.2269-24.09 3.8673-32.32 3.8736-7.07.0055-27.6-3.658-33.8-3.8736-18.64-.6487-20.37 1.7863-39.3 3.8736-22.44 2.4748-48.32-10.299-66.1-10.3514-42.65-.1257-65.88 8.2491-79.59 8.2491-19.42 0-28.16 0-37.87 0-9.72 0-54.88 0-76.73 0-21.855 0-22.341 2.1023-45.165 2.1023s-58.76-2.1023-58.76-2.1023l-12.626-8.2491s-20.94 6.8061-48.563 6.8061c-27.622 0-42.033 0-57.577 0s-63.071-6.8061-108.388-6.8061-110.996 6.8061-118.202 6.8061-29.071-6.8061-29.071-6.8061-30.582 0-34.467 0-40.793 0-40.793 0l-29.137 6.8061-11.877-6.8061h-18.413-37.697l-59.246-10.17799237-21.329 10.17799237s-9.751-10.17799237-16.55-10.17799237c-6.798 0-12.14 0-12.14 0h-40.152s-5.011 10.17799237-11.81 10.17799237c-6.798 0-33.022 0-33.022 0l-22.339-10.17799237s-57.5276 10.17799237-71.6769 10.17799237-59.96701 0-59.96701 0l-9.27209 80.1159h1440z" fill="#e5f8fe" fill-rule="evenodd"/></svg>