<svg width="28" height="28" viewBox="0 0 28 28" fill="none" xmlns="http://www.w3.org/2000/svg">
<path fill-rule="evenodd" clip-rule="evenodd" d="M6.6012 4.02936C7.19089 3.82022 7.78991 3.79167 8.28601 3.79167H9.00056C10.2055 3.79167 11.3807 4.16547 12.3643 4.86153L12.9498 5.27594C13.2568 5.49319 13.6236 5.60985 13.9997 5.60985C14.3758 5.60985 14.7426 5.49318 15.0496 5.27593L15.6351 4.86154C16.6186 4.16547 17.7939 3.79167 18.9988 3.79167H19.7134C20.2095 3.79167 20.8085 3.82022 21.3981 4.02936C23.0819 4.62654 24.4136 5.9989 25.2906 8.21933C26.1586 10.4169 26.6043 13.4916 26.5342 17.6345C26.5194 18.5089 26.4103 19.489 26.0741 20.3716C25.7335 21.2659 25.1385 22.1089 24.1372 22.5877C23.5677 22.86 22.8963 23.0417 22.1352 23.0417C21.2171 23.0417 20.462 22.7772 19.8695 22.3889C19.3183 22.0276 18.8363 21.5606 18.4246 21.1616C18.3744 21.113 18.3253 21.0654 18.2773 21.0191C17.8049 20.5645 17.4078 20.2097 16.9671 19.9811C16.4103 19.6924 15.7922 19.5417 15.165 19.5417H12.8344C12.2071 19.5417 11.5891 19.6924 11.0323 19.9811C10.5916 20.2097 10.1944 20.5645 9.7221 21.0191C9.67405 21.0654 9.62495 21.113 9.57481 21.1616C9.16306 21.5606 8.68111 22.0276 8.1299 22.3889C7.53736 22.7772 6.78224 23.0417 5.86417 23.0417C5.10303 23.0417 4.43168 22.86 3.86211 22.5877C2.8609 22.1089 2.26587 21.2659 1.92525 20.3716C1.58905 19.489 1.47997 18.5089 1.46518 17.6345C1.39509 13.4916 1.84077 10.4169 2.70876 8.21934C3.58577 5.99891 4.91741 4.62655 6.6012 4.02936ZM8.28601 5.54167C7.83901 5.54167 7.48534 5.5726 7.18617 5.6787C6.09015 6.06743 5.07581 6.99016 4.33639 8.86222C3.58794 10.7572 3.14671 13.5723 3.21493 17.6049C3.228 18.3778 3.32558 19.1316 3.56063 19.7487C3.79125 20.3542 4.13207 20.7769 4.61711 21.0089C4.97383 21.1795 5.38855 21.2917 5.86417 21.2917C6.43015 21.2917 6.85354 21.133 7.1706 20.9252C7.57399 20.6609 7.93251 20.3145 8.36317 19.8985C8.41068 19.8526 8.45907 19.8059 8.5085 19.7583C8.9763 19.308 9.53566 18.7859 10.2267 18.4276C11.0324 18.0098 11.9267 17.7917 12.8344 17.7917H15.165C16.0726 17.7917 16.967 18.0098 17.7727 18.4276C18.4637 18.7859 19.0231 19.308 19.4909 19.7583C19.5403 19.8059 19.5887 19.8526 19.6362 19.8985C20.0669 20.3145 20.4254 20.6608 20.8288 20.9252C21.1458 21.133 21.5692 21.2917 22.1352 21.2917C22.6108 21.2917 23.0255 21.1795 23.3822 21.0089C23.8673 20.7769 24.2081 20.3542 24.4387 19.7487C24.6738 19.1316 24.7714 18.3778 24.7844 17.6049C24.8526 13.5723 24.4114 10.7572 23.663 8.86221C22.9235 6.99015 21.9092 6.06742 20.8132 5.6787C20.514 5.57259 20.1604 5.54167 19.7134 5.54167H18.9988C18.156 5.54167 17.334 5.80313 16.646 6.28999L16.0605 6.70438C15.4579 7.13084 14.7379 7.35985 13.9997 7.35985C13.2615 7.35985 12.5415 7.13084 11.9389 6.7044L11.3533 6.28999C10.6654 5.80313 9.84336 5.54167 9.00056 5.54167H8.28601ZM8.74968 9.625C9.23293 9.625 9.62468 10.0168 9.62468 10.5V11.375H10.4997C10.9829 11.375 11.3747 11.7668 11.3747 12.25C11.3747 12.7333 10.9829 13.125 10.4997 13.125H9.62468V14C9.62468 14.4833 9.23293 14.875 8.74968 14.875C8.26643 14.875 7.87468 14.4833 7.87468 14V13.125H6.99968C6.51643 13.125 6.12468 12.7333 6.12468 12.25C6.12468 11.7668 6.51643 11.375 6.99968 11.375H7.87468V10.5C7.87468 10.0168 8.26643 9.625 8.74968 9.625Z" fill="#242526"/>
<path d="M22.1663 11.9583C22.1663 12.4416 21.7746 12.8333 21.2913 12.8333C20.8081 12.8333 20.4163 12.4416 20.4163 11.9583C20.4163 11.4751 20.8081 11.0833 21.2913 11.0833C21.7746 11.0833 22.1663 11.4751 22.1663 11.9583Z" fill="#242526"/>
<path d="M18.6663 11.9583C18.6663 12.4416 18.2746 12.8333 17.7913 12.8333C17.3081 12.8333 16.9163 12.4416 16.9163 11.9583C16.9163 11.4751 17.3081 11.0833 17.7913 11.0833C18.2746 11.0833 18.6663 11.4751 18.6663 11.9583Z" fill="#242526"/>
<path d="M19.5413 9.33334C20.0246 9.33334 20.4163 9.72509 20.4163 10.2083C20.4163 10.6916 20.0246 11.0833 19.5413 11.0833C19.0581 11.0833 18.6663 10.6916 18.6663 10.2083C18.6663 9.72509 19.0581 9.33334 19.5413 9.33334Z" fill="#242526"/>
<path d="M19.5413 12.8333C20.0246 12.8333 20.4163 13.2251 20.4163 13.7083C20.4163 14.1916 20.0246 14.5833 19.5413 14.5833C19.0581 14.5833 18.6663 14.1916 18.6663 13.7083C18.6663 13.2251 19.0581 12.8333 19.5413 12.8333Z" fill="#242526"/>
<path d="M22.167 11.9583C22.167 12.4415 21.7752 12.8333 21.292 12.8333C20.8087 12.8333 20.417 12.4415 20.417 11.9583C20.417 11.475 20.8087 11.0833 21.292 11.0833C21.7752 11.0833 22.167 11.475 22.167 11.9583Z" fill="#0062FF"/>
<path d="M18.667 11.9583C18.667 12.4415 18.2752 12.8333 17.792 12.8333C17.3087 12.8333 16.917 12.4415 16.917 11.9583C16.917 11.475 17.3087 11.0833 17.792 11.0833C18.2752 11.0833 18.667 11.475 18.667 11.9583Z" fill="#0062FF"/>
<path d="M19.542 9.33325C20.0252 9.33325 20.417 9.725 20.417 10.2083C20.417 10.6915 20.0252 11.0833 19.542 11.0833C19.0587 11.0833 18.667 10.6915 18.667 10.2083C18.667 9.725 19.0587 9.33325 19.542 9.33325Z" fill="#0062FF"/>
<path d="M19.542 12.8333C20.0252 12.8333 20.417 13.225 20.417 13.7083C20.417 14.1915 20.0252 14.5833 19.542 14.5833C19.0587 14.5833 18.667 14.1915 18.667 13.7083C18.667 13.225 19.0587 12.8333 19.542 12.8333Z" fill="#0062FF"/>
<path d="M8.75 9.62488C9.23325 9.62488 9.625 10.0166 9.625 10.4999V11.3749H10.5C10.9832 11.3749 11.375 11.7666 11.375 12.2499C11.375 12.7331 10.9832 13.1249 10.5 13.1249H9.625V13.9999C9.625 14.4831 9.23325 14.8749 8.75 14.8749C8.26675 14.8749 7.875 14.4831 7.875 13.9999V13.1249H7C6.51675 13.1249 6.125 12.7331 6.125 12.2499C6.125 11.7666 6.51675 11.3749 7 11.3749H7.875V10.4999C7.875 10.0166 8.26675 9.62488 8.75 9.62488Z" fill="#0062FF"/>
</svg>
