<svg width="28" height="28" viewBox="0 0 28 28" fill="none" xmlns="http://www.w3.org/2000/svg">
<path fill-rule="evenodd" clip-rule="evenodd" d="M11.0264 3.79166H11.1406C13.0099 3.79164 14.4908 3.79163 15.6624 3.93012C16.8652 4.07229 17.8553 4.37077 18.6824 5.04956C18.963 5.27984 19.2203 5.53713 19.4506 5.81773C20.1294 6.64483 20.4279 7.63498 20.57 8.83778C20.602 9.10814 20.6266 9.39496 20.6455 9.69923C21.5625 9.24223 22.3395 8.86672 22.9872 8.6548C23.7472 8.40611 24.5534 8.30575 25.2969 8.76526C26.0404 9.22477 26.3111 9.9907 26.4286 10.7817C26.5419 11.5448 26.5419 12.5501 26.5418 13.7578V14.2422C26.5419 15.4499 26.5419 16.4552 26.4286 17.2183C26.3111 18.0093 26.0404 18.7752 25.2969 19.2347C24.5534 19.6942 23.7472 19.5939 22.9872 19.3452C22.3395 19.1333 21.5625 18.7578 20.6455 18.3008C20.6266 18.605 20.602 18.8918 20.57 19.1622C20.4279 20.365 20.1294 21.3552 19.4506 22.1823C19.2203 22.4629 18.963 22.7201 18.6824 22.9504C17.8553 23.6292 16.8652 23.9277 15.6624 24.0699C14.4908 24.2084 13.0099 24.2083 11.1406 24.2083H11.0264C9.1571 24.2083 7.6762 24.2084 6.50462 24.0699C5.30182 23.9277 4.31167 23.6292 3.48457 22.9504C3.20397 22.7201 2.94668 22.4629 2.7164 22.1823C2.03761 21.3552 1.73913 20.365 1.59696 19.1622C1.45847 17.9906 1.45848 16.5097 1.4585 14.6404V13.3596C1.45848 11.4903 1.45847 10.0094 1.59696 8.83778C1.73913 7.63498 2.03761 6.64483 2.7164 5.81773C2.94668 5.53713 3.20397 5.27984 3.48457 5.04956C4.31167 4.37077 5.30182 4.07229 6.50462 3.93012C7.67621 3.79163 9.15713 3.79164 11.0264 3.79166ZM18.9585 14.5833V13.4167C18.9585 11.4775 18.9571 10.1001 18.8321 9.04321C18.7095 8.00562 18.4783 7.39155 18.0978 6.92792C17.9403 6.73593 17.7642 6.55989 17.5722 6.40233C17.1086 6.02183 16.4945 5.79066 15.4569 5.66802C14.4 5.54309 13.0226 5.54166 11.0835 5.54166C9.14437 5.54166 7.76695 5.54309 6.71005 5.66802C5.67246 5.79066 5.05839 6.02183 4.59476 6.40233C4.40277 6.55989 4.22673 6.73593 4.06917 6.92792C3.68867 7.39155 3.4575 8.00562 3.33486 9.04321C3.20993 10.1001 3.2085 11.4775 3.2085 13.4167V14.5833C3.2085 16.5225 3.20993 17.8999 3.33486 18.9568C3.4575 19.9944 3.68867 20.6084 4.06917 21.0721C4.22673 21.2641 4.40277 21.4401 4.59476 21.5977C5.05839 21.9782 5.67246 22.2093 6.71005 22.332C7.76695 22.4569 9.14437 22.4583 11.0835 22.4583C13.0226 22.4583 14.4 22.4569 15.4569 22.332C16.4945 22.2093 17.1086 21.9782 17.5722 21.5977C17.7642 21.4401 17.9403 21.2641 18.0978 21.0721C18.4783 20.6084 18.7095 19.9944 18.8321 18.9568C18.9571 17.8999 18.9585 16.5225 18.9585 14.5833ZM20.7085 16.3759L20.9929 16.5181C22.1542 17.0987 22.9366 17.4873 23.5314 17.682C24.114 17.8726 24.2904 17.7995 24.3768 17.7461C24.4633 17.6926 24.6075 17.5676 24.6976 16.9612C24.7895 16.3422 24.7918 15.4686 24.7918 14.1702V13.8298C24.7918 12.5314 24.7895 11.6578 24.6976 11.0387C24.6075 10.4324 24.4633 10.3073 24.3768 10.2539C24.2904 10.2005 24.114 10.1274 23.5314 10.318C22.9366 10.5127 22.1542 10.9013 20.9929 11.4819L20.7085 11.6241V13.2609C20.7085 13.2937 20.7085 13.3266 20.7085 13.3596V14.6404C20.7085 14.6734 20.7085 14.7063 20.7085 14.7391V16.3759ZM15.2022 9.29794C14.8605 8.95623 14.3065 8.95623 13.9648 9.29794C13.6231 9.63965 13.6231 10.1937 13.9648 10.5354C14.3065 10.8771 14.8605 10.8771 15.2022 10.5354C15.5439 10.1937 15.5439 9.63965 15.2022 9.29794ZM12.7273 8.0605C13.7525 7.03538 15.4145 7.03538 16.4397 8.0605C17.4648 9.08563 17.4648 10.7477 16.4397 11.7728C15.4145 12.7979 13.7525 12.7979 12.7273 11.7728C11.7022 10.7477 11.7022 9.08563 12.7273 8.0605Z" fill="#242526"/>
<path fill-rule="evenodd" clip-rule="evenodd" d="M15.2017 9.298C14.86 8.95629 14.306 8.95629 13.9643 9.298C13.6226 9.63971 13.6226 10.1937 13.9643 10.5354C14.306 10.8771 14.86 10.8771 15.2017 10.5354C15.5434 10.1937 15.5434 9.63971 15.2017 9.298ZM12.7269 8.06056C13.752 7.03544 15.414 7.03544 16.4392 8.06056C17.4643 9.08569 17.4643 10.7477 16.4392 11.7729C15.414 12.798 13.752 12.798 12.7269 11.7729C11.7017 10.7477 11.7017 9.08569 12.7269 8.06056Z" fill="#0062FF"/>
</svg>
