<svg width="28" height="28" viewBox="0 0 28 28" fill="none" xmlns="http://www.w3.org/2000/svg">
<path d="M22.3125 13C23.0374 13 23.625 12.4124 23.625 11.6875C23.625 10.9626 23.0374 10.375 22.3125 10.375C21.5876 10.375 21 10.9626 21 11.6875C21 12.4124 21.5876 13 22.3125 13Z" fill="#0062FF"/>
<path d="M22.3125 17.25C23.0374 17.25 23.625 16.6624 23.625 15.9375C23.625 15.2126 23.0374 14.625 22.3125 14.625C21.5876 14.625 21 15.2126 21 15.9375C21 16.6624 21.5876 17.25 22.3125 17.25Z" fill="#0062FF"/>
<path d="M19 25L19 7" stroke="#0062FF" stroke-width="2" stroke-linecap="round" stroke-linejoin="round"/>
<path d="M9 1L14 6L19 1" stroke="#0062FF" stroke-width="2" stroke-linecap="round" stroke-linejoin="round"/>
<path fill-rule="evenodd" clip-rule="evenodd" d="M26.541 16.9271L26.541 17.0729C26.541 19.4859 26.5411 19.3958 26.3178 20.89C26.0871 22.4346 25.6021 23.6594 24.5428 24.6127C23.4968 25.5541 22.1751 25.9744 20.5052 26.1765C18.8642 26.375 16.7585 26.375 14.0602 26.375L13.9385 26.375C11.2402 26.375 9.13451 26.375 7.49349 26.1765C5.8236 25.9744 4.50194 25.5541 3.45588 24.6127C2.39663 23.6594 1.9116 22.4346 1.68085 20.89C1.45764 19.3958 1.45766 19.4859 1.45768 17.0729L1.45768 16.9271C1.45766 14.5141 1.45764 12.6042 1.68085 11.11C1.9116 9.56538 2.39663 8.34063 3.45588 7.38731C4.50194 6.44586 5.8236 6.02561 7.49349 5.82355C9.13451 5.62498 11.2402 5.62499 13.9385 5.625L14.0602 5.625C16.7585 5.62499 18.8642 5.62498 20.5052 5.82355C22.1751 6.02561 23.4968 6.44586 24.5428 7.38731C25.6021 8.34063 26.0871 9.56539 26.3178 11.11C26.5411 12.6042 26.541 14.5141 26.541 16.9271ZM24.587 11.3686C24.3907 10.054 24.0214 9.27243 23.3721 8.68807C22.7096 8.09183 21.8021 7.74324 20.295 7.56088C18.7713 7.37651 16.7715 7.375 13.9993 7.375C11.2272 7.375 9.22736 7.37651 7.70371 7.56087C6.1966 7.74324 5.28906 8.09183 4.62657 8.68807C3.97728 9.27243 3.60803 10.054 3.41165 11.3686C3.20997 12.7187 3.20768 14.4977 3.20768 17C3.20768 19.5023 3.20997 19.2813 3.41165 20.6314C3.60803 21.946 3.97728 22.7276 4.62657 23.3119C5.28906 23.9082 6.1966 24.2568 7.70371 24.4391C9.22736 24.6235 11.2272 24.625 13.9993 24.625C16.7715 24.625 18.7713 24.6235 20.295 24.4391C21.8021 24.2568 22.7096 23.9082 23.3721 23.3119C24.0214 22.7276 24.3907 21.946 24.587 20.6314C24.7887 19.2813 24.791 19.5023 24.791 17C24.791 14.4977 24.7887 12.7187 24.587 11.3686Z" fill="#242526"/>
</svg>
