<svg width="28" height="28" viewBox="0 0 28 28" fill="none" xmlns="http://www.w3.org/2000/svg">
<g clip-path="url(#clip0_1319_2877)">
<path d="M14 19.5983C17.3592 19.5983 20.0921 16.8653 20.0921 13.5061V6.09213C20.0921 2.73295 17.3592 0 14 0C10.6408 0 7.90787 2.73295 7.90787 6.09213V13.506C7.90787 16.8654 10.6408 19.5983 14 19.5983ZM9.65787 6.09213C9.65787 3.69786 11.6057 1.75 14 1.75C16.3943 1.75 18.3421 3.69786 18.3421 6.09213V13.506C18.3421 15.9003 16.3943 17.8482 14 17.8482C11.6057 17.8482 9.65787 15.9003 9.65787 13.506V6.09213ZM24.04 15.2674C23.6303 17.5956 22.4028 19.7288 20.5838 21.274C18.9667 22.6477 16.9665 23.4792 14.875 23.6615V26.25H20.5625C21.0458 26.25 21.4375 26.6417 21.4375 27.125C21.4375 27.6083 21.0458 28 20.5625 28H7.4375C6.95423 28 6.5625 27.6083 6.5625 27.125C6.5625 26.6417 6.95423 26.25 7.4375 26.25H13.125V23.6615C11.0335 23.4792 9.03334 22.6477 7.41623 21.274C5.59721 19.7288 4.3698 17.5956 3.96003 15.2674C3.8763 14.7914 4.19415 14.3377 4.67009 14.254C5.14598 14.1702 5.59978 14.4881 5.68351 14.964C6.39592 19.0119 9.89352 21.9498 14 21.9498C18.1065 21.9498 21.6041 19.0118 22.3165 14.964C22.4002 14.4881 22.8539 14.1701 23.3299 14.254C23.8059 14.3377 24.1238 14.7914 24.04 15.2674ZM24.0532 5.89356V10.9486C24.0532 11.4319 23.6615 11.8236 23.1782 11.8236C22.6949 11.8236 22.3032 11.4319 22.3032 10.9486V5.89356C22.3032 5.41029 22.6949 5.01856 23.1782 5.01856C23.6615 5.01856 24.0532 5.41029 24.0532 5.89356ZM28 7.09745V9.74455C28 10.2278 27.6083 10.6195 27.125 10.6195C26.6417 10.6195 26.25 10.2278 26.25 9.74455V7.09745C26.25 6.61418 26.6417 6.22245 27.125 6.22245C27.6083 6.22245 28 6.61418 28 7.09745ZM3.9468 10.9485V5.89351C3.9468 5.41023 4.33852 5.01851 4.8218 5.01851C5.30507 5.01851 5.6968 5.41023 5.6968 5.89351V10.9485C5.6968 11.4318 5.30507 11.8235 4.8218 11.8235C4.33852 11.8235 3.9468 11.4318 3.9468 10.9485ZM1.75 7.09745V9.74455C1.75 10.2278 1.35827 10.6195 0.875 10.6195C0.391727 10.6195 0 10.2278 0 9.74455V7.09745C0 6.61418 0.391727 6.22245 0.875 6.22245C1.35827 6.22245 1.75 6.61418 1.75 7.09745Z" fill="#242526"/>
<path d="M14 19.5983C17.3592 19.5983 20.0921 16.8653 20.0921 13.5061V6.09213C20.0921 2.73295 17.3592 0 14 0C10.6408 0 7.90787 2.73295 7.90787 6.09213V13.506C7.90787 16.8654 10.6408 19.5983 14 19.5983ZM9.65787 6.09213C9.65787 3.69786 11.6057 1.75 14 1.75C16.3943 1.75 18.3421 3.69786 18.3421 6.09213V13.506C18.3421 15.9003 16.3943 17.8482 14 17.8482C11.6057 17.8482 9.65787 15.9003 9.65787 13.506V6.09213ZM24.0532 5.89356V10.9486C24.0532 11.4319 23.6615 11.8236 23.1782 11.8236C22.6949 11.8236 22.3032 11.4319 22.3032 10.9486V5.89356C22.3032 5.41029 22.6949 5.01856 23.1782 5.01856C23.6615 5.01856 24.0532 5.41029 24.0532 5.89356ZM28 7.09745V9.74455C28 10.2278 27.6083 10.6195 27.125 10.6195C26.6417 10.6195 26.25 10.2278 26.25 9.74455V7.09745C26.25 6.61418 26.6417 6.22245 27.125 6.22245C27.6083 6.22245 28 6.61418 28 7.09745ZM3.9468 10.9485V5.89351C3.9468 5.41023 4.33852 5.01851 4.8218 5.01851C5.30507 5.01851 5.6968 5.41023 5.6968 5.89351V10.9485C5.6968 11.4318 5.30507 11.8235 4.8218 11.8235C4.33852 11.8235 3.9468 11.4318 3.9468 10.9485ZM1.75 7.09745V9.74455C1.75 10.2278 1.35827 10.6195 0.875 10.6195C0.391727 10.6195 0 10.2278 0 9.74455V7.09745C0 6.61418 0.391727 6.22245 0.875 6.22245C1.35827 6.22245 1.75 6.61418 1.75 7.09745Z" fill="#0062FF"/>
</g>
<defs>
<clipPath id="clip0_1319_2877">
<rect width="28" height="28" fill="white"/>
</clipPath>
</defs>
</svg>
