<svg width="28" height="28" viewBox="0 0 28 28" fill="none" xmlns="http://www.w3.org/2000/svg">
<g clip-path="url(#clip0_1319_2935)">
<path d="M10.2207 6.94591C11.3031 6.22761 12.603 5.81019 13.9993 5.81019C17.7851 5.81019 20.854 8.87915 20.854 12.6649H7.14453C7.14453 10.8958 7.8153 9.28363 8.91512 8.06874" stroke="#0062FF" stroke-width="1.5" stroke-miterlimit="10" stroke-linecap="round" stroke-linejoin="round"/>
<path d="M13.999 5.81015V1.38086" stroke="#0062FF" stroke-width="1.5" stroke-miterlimit="10" stroke-linecap="round" stroke-linejoin="round"/>
<path d="M13.999 1.38083H18.565L17.7676 2.70232L18.565 4.02512H13.999V1.38083Z" stroke="#0062FF" stroke-width="1.5" stroke-miterlimit="10" stroke-linecap="round" stroke-linejoin="round"/>
<path d="M2.11937 15.6906H25.8793C26.2866 15.6906 26.6191 15.3581 26.6191 14.9508V13.4033C26.6191 12.9974 26.2866 12.6649 25.8793 12.6649H2.11937C1.71343 12.6649 1.38086 12.9974 1.38086 13.4033V14.9508C1.38086 15.3581 1.71343 15.6906 2.11937 15.6906Z" stroke="black" stroke-width="1.5" stroke-miterlimit="10" stroke-linecap="round" stroke-linejoin="round"/>
<path d="M2.11914 19.272V15.6906H25.879V24.5779H2.11914V20.9965" stroke="black" stroke-width="1.5" stroke-miterlimit="10" stroke-linecap="round" stroke-linejoin="round"/>
<path d="M2.11937 26.6191H25.8793C26.2866 26.6191 26.6191 26.2866 26.6191 25.8793V25.3178C26.6191 24.9119 26.2866 24.578 25.8793 24.578H2.11937C1.71343 24.578 1.38086 24.9119 1.38086 25.3178V25.8793C1.38086 26.2866 1.71343 26.6191 2.11937 26.6191Z" stroke="#0062FF" stroke-width="1.5" stroke-miterlimit="10" stroke-linecap="round" stroke-linejoin="round"/>
</g>
<defs>
<clipPath id="clip0_1319_2935">
<rect width="28" height="28" fill="white"/>
</clipPath>
</defs>
</svg>
