<svg width="28" height="28" viewBox="0 0 28 28" fill="none" xmlns="http://www.w3.org/2000/svg">
<path fill-rule="evenodd" clip-rule="evenodd" d="M11.6548 12.7284C12.1898 12.3771 12.9101 12.3132 13.5391 12.7031L17.4726 15.1416C18.0994 15.5301 18.3752 16.2019 18.3752 16.8118C18.3752 17.4218 18.0994 18.0936 17.4726 18.4821L13.5391 20.9206C12.9101 21.3105 12.1898 21.2466 11.6548 20.8953C11.129 20.5501 10.7918 19.9422 10.7918 19.2503V14.3734C10.7918 13.6814 11.129 13.0736 11.6548 12.7284ZM12.6153 14.1912C12.5937 14.2054 12.5418 14.2571 12.5418 14.3734V19.2503C12.5418 19.3666 12.5937 19.4183 12.6153 19.4325L12.6167 19.4334L16.5505 16.9948C16.5752 16.9795 16.6252 16.9266 16.6252 16.8118C16.6252 16.6971 16.5752 16.6442 16.5505 16.6289L12.617 14.1904L12.6153 14.1912Z" fill="#242526"/>
<path fill-rule="evenodd" clip-rule="evenodd" d="M10.1494 1.45832C9.89291 1.45825 9.69626 1.4582 9.52435 1.47665C7.9445 1.64619 6.73528 2.94353 6.66189 4.51506C5.27252 4.92984 4.28251 6.2154 4.26465 7.68983C3.56369 7.90023 2.95908 8.23205 2.46411 8.76669C1.70346 9.58831 1.46774 10.6009 1.45876 11.7837C1.45013 12.9208 1.65276 14.3578 1.90439 16.1423L2.41654 19.7749C2.61325 21.1703 2.77305 22.3038 3.0217 23.1922C3.28183 24.1215 3.66527 24.8862 4.37519 25.474C5.0795 26.0571 5.91508 26.3086 6.90271 26.4271C7.85767 26.5417 9.05902 26.5417 10.5548 26.5417H17.4455C18.9412 26.5417 20.1426 26.5417 21.0976 26.4271C22.0852 26.3086 22.9208 26.0571 23.6251 25.474C24.335 24.8862 24.7185 24.1215 24.9786 23.1922C25.2273 22.3038 25.3871 21.1703 25.5838 19.7749L26.0959 16.1423C26.3476 14.3578 26.5502 12.9208 26.5416 11.7837C26.5326 10.6009 26.2969 9.58831 25.5362 8.76669C25.0411 8.23192 24.4363 7.90007 23.7352 7.68968C23.7172 6.21539 22.7274 4.92997 21.3382 4.51513C21.2648 2.94357 20.0556 1.64619 18.4757 1.47665C18.3038 1.4582 18.1071 1.45825 17.8506 1.45832H10.1494ZM21.9458 7.38242C21.7857 6.67352 21.1525 6.125 20.3721 6.125H7.62768C6.84728 6.125 6.21404 6.67354 6.05402 7.38247C7.13411 7.29163 8.45818 7.29165 10.0521 7.29166H17.9482C19.5419 7.29165 20.8658 7.29163 21.9458 7.38242ZM19.5624 4.375C19.4382 3.76403 18.9309 3.28554 18.289 3.21666C18.2233 3.20961 18.1297 3.20833 17.8021 3.20833H10.198C9.87031 3.20833 9.77675 3.20961 9.71108 3.21666C9.06918 3.28554 8.56188 3.76403 8.43761 4.375H19.5624ZM3.74828 9.95556C4.10166 9.57385 4.63306 9.32067 5.66564 9.18333C6.71697 9.0435 8.12433 9.04166 10.118 9.04166H17.8824C19.876 9.04166 21.2833 9.0435 22.3347 9.18333C23.3673 9.32067 23.8987 9.57385 24.252 9.95556C24.5972 10.3284 24.7843 10.8358 24.7916 11.797C24.7991 12.7887 24.617 14.0966 24.353 15.9697L23.8595 19.4697C23.6521 20.9406 23.5069 21.9578 23.2934 22.7204C23.0878 23.4549 22.8459 23.8472 22.5091 24.126C22.1667 24.4095 21.707 24.5914 20.8891 24.6896C20.0506 24.7902 18.9544 24.7917 17.3889 24.7917H10.6114C9.04587 24.7917 7.94975 24.7902 7.11122 24.6896C6.29336 24.5914 5.83366 24.4095 5.49125 24.126C5.15444 23.8472 4.91251 23.4549 4.70692 22.7204C4.49346 21.9578 4.34821 20.9406 4.14082 19.4697L3.64735 15.9696C3.38327 14.0966 3.20118 12.7887 3.20871 11.797C3.21601 10.8358 3.40311 10.3284 3.74828 9.95556Z" fill="#242526"/>
<path fill-rule="evenodd" clip-rule="evenodd" d="M11.6549 12.7284C12.1899 12.3772 12.9103 12.3132 13.5393 12.7031L17.4728 15.1416C18.0996 15.5302 18.3753 16.202 18.3753 16.8119C18.3753 17.4218 18.0996 18.0936 17.4728 18.4822L13.5393 20.9207C12.9103 21.3106 12.1899 21.2467 11.6549 20.8954C11.1292 20.5502 10.792 19.9423 10.792 19.2504V14.3734C10.792 13.6815 11.1292 13.0736 11.6549 12.7284ZM12.6154 14.1913C12.5939 14.2054 12.542 14.2571 12.542 14.3734V19.2504C12.542 19.3667 12.5939 19.4184 12.6154 19.4325L12.6169 19.4335L16.5507 16.9948C16.5754 16.9795 16.6253 16.9266 16.6253 16.8119C16.6253 16.6972 16.5754 16.6443 16.5507 16.629L12.6172 14.1905L12.6154 14.1913Z" fill="#0062FF"/>
</svg>
