<svg width="28" height="28" viewBox="0 0 28 28" fill="none" xmlns="http://www.w3.org/2000/svg">
<path fill-rule="evenodd" clip-rule="evenodd" d="M9.92987 4.31477C10.4604 4.75289 11.1363 4.95834 11.6663 4.95834C12.1496 4.95834 12.5413 5.35009 12.5413 5.83334C12.5413 6.31659 12.1496 6.70834 11.6663 6.70834C10.8258 6.70834 9.85628 6.42733 9.04134 5.8386V12.8333C9.04134 13.0194 8.98324 13.192 8.88419 13.3338C8.41791 14.8998 6.96715 16.0417 5.24967 16.0417C3.15559 16.0417 1.45801 14.3441 1.45801 12.25C1.45801 10.1559 3.15559 8.45834 5.24967 8.45834C6.00138 8.45834 6.702 8.67709 7.29134 9.0544V2.33334H9.04134C9.04134 3.26417 9.42447 3.89738 9.92987 4.31477ZM7.29134 12.25C7.29134 11.1224 6.37726 10.2083 5.24967 10.2083C4.12209 10.2083 3.20801 11.1224 3.20801 12.25C3.20801 13.3776 4.12209 14.2917 5.24967 14.2917C6.37726 14.2917 7.29134 13.3776 7.29134 12.25ZM22.8345 4.59794C22.0508 4.79765 21.0248 5.22459 19.5357 5.84783L17.2024 6.82443C16.4905 7.12241 16.0212 7.3201 15.6763 7.51058C15.3501 7.69073 15.2088 7.82622 15.119 7.96127C15.0291 8.09631 14.9587 8.27897 14.9184 8.64943C14.8759 9.04114 14.8747 9.55031 14.8747 10.3221V12.7076L24.791 8.74109C24.7888 7.44763 24.7737 6.51598 24.6707 5.81995C24.5548 5.03691 24.3564 4.76876 24.141 4.62536C23.9255 4.48196 23.6015 4.40248 22.8345 4.59794ZM26.5413 9.31295V9.27217C26.5414 7.74919 26.5414 6.50721 26.4018 5.56385C26.2575 4.58841 25.9356 3.71762 25.1105 3.1685C24.2854 2.61938 23.3579 2.65865 22.4024 2.90214C21.4783 3.13762 20.3326 3.61717 18.9277 4.20521L16.4846 5.22776C15.8261 5.50335 15.2682 5.73684 14.8303 5.97868C14.3644 6.23599 13.9631 6.53947 13.6621 6.99171C13.3611 7.44395 13.2361 7.93133 13.1786 8.46046C13.1246 8.95778 13.1247 9.56258 13.1247 10.2764V13.9802C13.1244 13.9935 13.1244 14.007 13.1247 14.0204V19.5544C12.5353 19.1771 11.8347 18.9583 11.083 18.9583C8.98893 18.9583 7.29134 20.6559 7.29134 22.75C7.29134 24.8441 8.98893 26.5417 11.083 26.5417C13.1771 26.5417 14.8747 24.8441 14.8747 22.75C14.8747 22.5516 14.8594 22.3568 14.8301 22.1667H14.8747V14.5924L24.7913 10.6257V17.2211C24.202 16.8438 23.5014 16.625 22.7497 16.625C20.6556 16.625 18.958 18.3226 18.958 20.4167C18.958 22.5108 20.6556 24.2083 22.7497 24.2083C24.8438 24.2083 26.5413 22.5108 26.5413 20.4167C26.5413 20.2803 26.5341 20.1455 26.5201 20.0128H26.5413V9.3532C26.5417 9.33981 26.5417 9.32639 26.5413 9.31295ZM22.7497 18.375C21.6221 18.375 20.708 19.2891 20.708 20.4167C20.708 21.5443 21.6221 22.4583 22.7497 22.4583C23.8773 22.4583 24.7913 21.5443 24.7913 20.4167C24.7913 19.2891 23.8773 18.375 22.7497 18.375ZM11.083 20.7083C9.95543 20.7083 9.04134 21.6224 9.04134 22.75C9.04134 23.8776 9.95543 24.7917 11.083 24.7917C12.2106 24.7917 13.1247 23.8776 13.1247 22.75C13.1247 21.6224 12.2106 20.7083 11.083 20.7083Z" fill="#242526"/>
<path fill-rule="evenodd" clip-rule="evenodd" d="M9.93085 4.3148C10.4613 4.75292 11.1372 4.95837 11.6673 4.95837C12.1506 4.95837 12.5423 5.35012 12.5423 5.83337C12.5423 6.31662 12.1506 6.70837 11.6673 6.70837C10.8268 6.70837 9.85726 6.42736 9.04232 5.83863V12.8334C9.04232 13.0195 8.98422 13.192 8.88517 13.3338C8.41889 14.8998 6.96812 16.0417 5.25065 16.0417C3.15657 16.0417 1.45898 14.3441 1.45898 12.25C1.45898 10.156 3.15657 8.45837 5.25065 8.45837C6.00236 8.45837 6.70298 8.67712 7.29232 9.05443V2.33337H9.04232C9.04232 3.2642 9.42545 3.89741 9.93085 4.3148ZM7.29232 12.25C7.29232 11.1225 6.37823 10.2084 5.25065 10.2084C4.12307 10.2084 3.20898 11.1225 3.20898 12.25C3.20898 13.3776 4.12307 14.2917 5.25065 14.2917C6.37823 14.2917 7.29232 13.3776 7.29232 12.25Z" fill="#0062FF"/>
</svg>
