<svg width="28" height="28" viewBox="0 0 28 28" fill="none" xmlns="http://www.w3.org/2000/svg">
<path fill-rule="evenodd" clip-rule="evenodd" d="M13.934 1.45833H14.0657C16.2097 1.45831 17.9079 1.4583 19.237 1.63699C20.6049 1.82089 21.712 2.20836 22.5851 3.08145C23.4581 3.95454 23.8456 5.06164 24.0295 6.42947C24.2082 7.75855 24.2082 9.45679 24.2082 11.6009V16.3991C24.2082 18.5432 24.2082 20.2414 24.0295 21.5705C23.8456 22.9383 23.4581 24.0455 22.5851 24.9185C21.712 25.7916 20.6049 26.1791 19.237 26.363C17.9079 26.5417 16.2097 26.5417 14.0657 26.5417H13.934C11.79 26.5417 10.0917 26.5417 8.76264 26.363C7.39482 26.1791 6.28771 25.7916 5.41462 24.9185C4.54153 24.0455 4.15406 22.9383 3.97016 21.5705C3.79147 20.2414 3.79149 18.5432 3.7915 16.3991V11.6008C3.79149 9.45679 3.79147 7.75855 3.97016 6.42947C4.15406 5.06164 4.54153 3.95454 5.41462 3.08145C6.28771 2.20836 7.39482 1.82089 8.76264 1.63699C10.0917 1.4583 11.79 1.45831 13.934 1.45833ZM8.99583 3.37138C7.82206 3.52919 7.1458 3.82514 6.65206 4.31888C6.15831 4.81263 5.86237 5.48888 5.70456 6.66265C5.54336 7.86159 5.5415 9.44204 5.5415 11.6667V16.3333C5.5415 18.558 5.54336 20.1384 5.70456 21.3373C5.86237 22.5111 6.15831 23.1874 6.65206 23.6811C7.1458 24.1749 7.82206 24.4708 8.99583 24.6286C10.1948 24.7898 11.7752 24.7917 13.9998 24.7917C16.2245 24.7917 17.8049 24.7898 19.0038 24.6286C20.1776 24.4708 20.8539 24.1749 21.3476 23.6811C21.8414 23.1874 22.1373 22.5111 22.2951 21.3373C22.4563 20.1384 22.4582 18.558 22.4582 16.3333V11.6667C22.4582 9.44204 22.4563 7.86159 22.2951 6.66265C22.1373 5.48888 21.8414 4.81263 21.3476 4.31888C20.8539 3.82514 20.1776 3.52919 19.0038 3.37138C17.8049 3.21019 16.2245 3.20833 13.9998 3.20833C11.7752 3.20833 10.1948 3.21019 8.99583 3.37138ZM9.62484 5.83333C9.62484 5.35008 10.0166 4.95833 10.4998 4.95833H17.4998C17.9831 4.95833 18.3748 5.35008 18.3748 5.83333C18.3748 6.31658 17.9831 6.70833 17.4998 6.70833H10.4998C10.0166 6.70833 9.62484 6.31658 9.62484 5.83333ZM13.9998 18.375C13.1944 18.375 12.5415 19.0279 12.5415 19.8333C12.5415 20.6387 13.1944 21.2917 13.9998 21.2917C14.8053 21.2917 15.4582 20.6387 15.4582 19.8333C15.4582 19.0279 14.8053 18.375 13.9998 18.375ZM10.7915 19.8333C10.7915 18.0614 12.2279 16.625 13.9998 16.625C15.7718 16.625 17.2082 18.0614 17.2082 19.8333C17.2082 21.6052 15.7718 23.0417 13.9998 23.0417C12.2279 23.0417 10.7915 21.6052 10.7915 19.8333Z" fill="#242526"/>
<path fill-rule="evenodd" clip-rule="evenodd" d="M9.625 5.83337C9.625 5.35012 10.0168 4.95837 10.5 4.95837H17.5C17.9833 4.95837 18.375 5.35012 18.375 5.83337C18.375 6.31662 17.9833 6.70837 17.5 6.70837H10.5C10.0168 6.70837 9.625 6.31662 9.625 5.83337ZM14 18.375C13.1946 18.375 12.5417 19.028 12.5417 19.8334C12.5417 20.6388 13.1946 21.2917 14 21.2917C14.8054 21.2917 15.4583 20.6388 15.4583 19.8334C15.4583 19.028 14.8054 18.375 14 18.375ZM10.7917 19.8334C10.7917 18.0615 12.2281 16.625 14 16.625C15.7719 16.625 17.2083 18.0615 17.2083 19.8334C17.2083 21.6053 15.7719 23.0417 14 23.0417C12.2281 23.0417 10.7917 21.6053 10.7917 19.8334Z" fill="#0062FF"/>
</svg>
