<svg fill="none" height="91" viewBox="0 0 1440 91" width="1440" xmlns="http://www.w3.org/2000/svg"><path clip-rule="evenodd" d="m1461.63 20.5294s-46.18-3.3078-68-3.8736c-8.75-.2269-24.8 3.8673-33.28 3.8736-7.28.0055-28.41-3.658-34.79-3.8736-19.2-.6487-20.99 1.7863-40.47 3.8736-23.1 2.4748-49.75-10.299-68.06-10.3514-43.91-.1257-67.83 8.2491-81.94 8.2491-20 0-29 0-39 0s-56.5 0-79 0c-22.501 0-23.001 2.1023-46.501 2.1023s-60.5-2.1023-60.5-2.1023l-13-8.2491s-21.56 6.8061-50 6.8061-43.278 0-59.283 0c-16.004 0-64.937-6.8061-111.596-6.8061s-114.282 6.8061-121.702 6.8061c-7.419 0-29.931-6.8061-29.931-6.8061s-31.488 0-35.488 0-42 0-42 0l-30 6.8061-12.229-6.8061h-18.958-38.813l-61-10.17799237-21.961 10.17799237s-10.039-10.17799237-17.039-10.17799237-12.5 0-12.5 0h-41.341s-5.159 10.17799237-12.159 10.17799237-34 0-34 0l-23-10.17799237s-59.2315 10.17799237-73.7996 10.17799237-61.7425 0-61.7425 0l-9.5467 80.1159h1482.6298z" fill="#e5f8fe" fill-rule="evenodd"/></svg>