<svg width="42" height="42" viewBox="0 0 42 42" fill="none" xmlns="http://www.w3.org/2000/svg">
<g filter="url(#filter0_d_2281_44356)">
<path d="M9 15C9 8.37258 14.3726 3 21 3C27.6274 3 33 8.37258 33 15C33 21.6274 27.6274 27 21 27H9V15Z" fill="black"/>
<path d="M10 15C10 8.92487 14.9249 4 21 4C27.0751 4 32 8.92487 32 15C32 21.0751 27.0751 26 21 26H10V15Z" stroke="white" stroke-width="2"/>
</g>
<path d="M20.8968 21.5298C21.3656 21.5298 21.7546 21.3892 22.0687 21.1126C22.3781 20.8313 22.5375 20.4798 22.5375 20.0485C22.5375 19.6173 22.3828 19.261 22.0687 18.9845C21.7546 18.7079 21.3656 18.5673 20.8968 18.5673C20.4281 18.5673 20.039 18.7079 19.725 18.9845C19.4109 19.261 19.2562 19.6173 19.2562 20.0485C19.2562 20.4798 19.4109 20.836 19.725 21.1126C20.039 21.3892 20.4281 21.5298 20.8968 21.5298Z" fill="white"/>
<path d="M23.9156 14.4892C24.3421 14.0767 24.6515 13.6688 24.8437 13.2704C25.0406 12.8579 25.139 12.4032 25.1437 11.9485C25.1437 10.8376 24.7875 9.98447 24.0703 9.37979C23.3531 8.7751 22.3406 8.4751 21.0375 8.4751C19.7296 8.4751 18.7125 8.80322 17.9859 9.45478C17.2593 10.1063 16.8937 11.0157 16.8796 12.1876H19.8421C19.8515 11.747 19.9687 11.4001 20.1843 11.1423C20.3906 10.8892 20.7046 10.7485 21.0328 10.7579C21.7921 10.7579 22.1718 11.2032 22.1718 12.0845C22.1718 12.4407 22.0546 12.7923 21.8343 13.0782C21.6093 13.3782 21.2765 13.711 20.8453 14.072C20.4281 14.4142 20.1046 14.8548 19.9078 15.3563C19.7156 15.8485 19.6171 16.5235 19.6171 17.3767H22.1296C22.139 16.9313 22.2 16.5657 22.3125 16.2751C22.4203 15.9845 22.6218 15.7032 22.9078 15.4267L23.9156 14.4892Z" fill="white"/>
<defs>
<filter id="filter0_d_2281_44356" x="0" y="0" width="42" height="42" filterUnits="userSpaceOnUse" color-interpolation-filters="sRGB">
<feFlood flood-opacity="0" result="BackgroundImageFix"/>
<feColorMatrix in="SourceAlpha" type="matrix" values="0 0 0 0 0 0 0 0 0 0 0 0 0 0 0 0 0 0 127 0" result="hardAlpha"/>
<feOffset dy="6"/>
<feGaussianBlur stdDeviation="4.5"/>
<feComposite in2="hardAlpha" operator="out"/>
<feColorMatrix type="matrix" values="0 0 0 0 0 0 0 0 0 0 0 0 0 0 0 0 0 0 0.2 0"/>
<feBlend mode="normal" in2="BackgroundImageFix" result="effect1_dropShadow_2281_44356"/>
<feBlend mode="normal" in="SourceGraphic" in2="effect1_dropShadow_2281_44356" result="shape"/>
</filter>
</defs>
</svg>
