<svg width="28" height="28" viewBox="0 0 28 28" fill="none" xmlns="http://www.w3.org/2000/svg">
<path fill-rule="evenodd" clip-rule="evenodd" d="M17.6939 3.21809L24.7816 10.3058C24.812 9.11373 24.7684 7.98411 24.6921 6.98672C24.5395 4.99097 23.0087 3.46018 21.013 3.30758C20.0156 3.23133 18.8859 3.18769 17.6939 3.21809ZM24.6247 12.6237L15.3759 3.375C12.2299 3.73077 9.07585 4.71609 6.89581 6.89614C4.71577 9.07618 3.73044 12.2302 3.37467 15.3763L12.6234 24.625C15.7695 24.2692 18.9235 23.2839 21.1035 21.1039C23.2836 18.9238 24.2689 15.7698 24.6247 12.6237ZM10.3054 24.7819L3.21777 17.6942C3.18736 18.8863 3.231 20.0159 3.30726 21.0133C3.45985 23.009 4.99064 24.5398 6.98639 24.6924C7.98378 24.7687 9.1134 24.8123 10.3054 24.7819ZM15.616 1.59041C17.6275 1.39689 19.5575 1.44119 21.1464 1.56268C24.0034 1.78112 26.2186 3.9963 26.437 6.85331C26.5585 8.44221 26.6028 10.3722 26.4093 12.3837C26.0775 15.8324 25.0339 19.6483 22.341 22.3413C19.648 25.0343 15.8321 26.0778 12.3834 26.4096C10.3719 26.6031 8.44188 26.5588 6.85298 26.4373C3.99597 26.2189 1.78079 24.0037 1.56235 21.1467C1.44086 19.5578 1.39656 17.6278 1.59008 15.6163C1.92188 12.1676 2.96541 8.35167 5.65837 5.6587C8.35134 2.96573 12.1672 1.9222 15.616 1.59041ZM13.9327 9.52012C14.2744 9.17841 14.8284 9.17841 15.1701 9.52012L16.2063 10.5562L17.2424 9.52012C17.5841 9.17841 18.1381 9.17841 18.4798 9.52012C18.8215 9.86183 18.8215 10.4158 18.4798 10.7576L17.4437 11.7937L18.4798 12.8298C18.8215 13.1715 18.8215 13.7255 18.4798 14.0672C18.1381 14.4089 17.5841 14.4089 17.2424 14.0672L16.2063 13.0311L15.2372 14.0001L16.2734 15.0362C16.6151 15.378 16.6151 15.932 16.2734 16.2737C15.9317 16.6154 15.3776 16.6154 15.0359 16.2737L13.9998 15.2376L13.0308 16.2066L14.0669 17.2427C14.4086 17.5844 14.4086 18.1384 14.0669 18.4801C13.7252 18.8218 13.1712 18.8218 12.8295 18.4801L11.7933 17.444L10.7572 18.4801C10.4155 18.8218 9.8615 18.8218 9.51979 18.4801C9.17808 18.1384 9.17808 17.5844 9.51979 17.2427L10.5559 16.2066L9.51979 15.1705C9.17808 14.8288 9.17808 14.2747 9.51979 13.933C9.8615 13.5913 10.4155 13.5913 10.7572 13.933L11.7933 14.9691L12.7624 14.0001L11.7262 12.964C11.3845 12.6223 11.3845 12.0683 11.7262 11.7266C12.068 11.3849 12.622 11.3849 12.9637 11.7266L13.9998 12.7627L14.9688 11.7937L13.9327 10.7576C13.591 10.4158 13.591 9.86183 13.9327 9.52012Z" fill="#242526"/>
<path d="M13.9329 9.5202C14.2746 9.17849 14.8286 9.17849 15.1703 9.5202L16.2064 10.5563L17.2425 9.5202C17.5842 9.17849 18.1383 9.17849 18.48 9.5202C18.8217 9.86191 18.8217 10.4159 18.48 10.7576L17.4439 11.7938L18.48 12.8299C18.8217 13.1716 18.8217 13.7256 18.48 14.0673C18.1383 14.409 17.5842 14.409 17.2425 14.0673L16.2064 13.0312L15.2374 14.0002L16.2735 15.0363C16.6152 15.378 16.6152 15.9321 16.2735 16.2738C15.9318 16.6155 15.3778 16.6155 15.0361 16.2738L14 15.2376L13.0309 16.2067L14.0671 17.2428C14.4088 17.5845 14.4088 18.1385 14.0671 18.4802C13.7254 18.8219 13.1713 18.8219 12.8296 18.4802L11.7935 17.4441L10.7574 18.4802C10.4157 18.8219 9.86166 18.8219 9.51995 18.4802C9.17824 18.1385 9.17824 17.5845 9.51995 17.2428L10.5561 16.2067L9.51995 15.1705C9.17824 14.8288 9.17824 14.2748 9.51995 13.9331C9.86166 13.5914 10.4157 13.5914 10.7574 13.9331L11.7935 14.9692L12.7625 14.0002L11.7264 12.9641C11.3847 12.6224 11.3847 12.0684 11.7264 11.7266C12.0681 11.3849 12.6221 11.3849 12.9638 11.7266L14 12.7628L14.969 11.7938L13.9329 10.7576C13.5911 10.4159 13.5911 9.86191 13.9329 9.5202Z" fill="#0062FF"/>
</svg>
