<svg width="20" height="20" viewBox="0 0 20 20" fill="none" xmlns="http://www.w3.org/2000/svg">
<g clip-path="url(#clip0_625_7662)">
<path d="M9.05777 17.9252L9.70319 18.3072L9.05777 17.9252ZM9.27397 17.5599L8.62855 17.1779L8.62855 17.1779L9.27397 17.5599ZM7.39268 17.5599L8.0381 17.1779L8.03809 17.1779L7.39268 17.5599ZM7.60888 17.9252L6.96346 18.3072L7.60888 17.9252ZM1.92041 14.2757L2.61332 13.9886H2.61332L1.92041 14.2757ZM5.24109 16.3208L5.26507 15.5712H5.26507L5.24109 16.3208ZM3.72439 16.0796L3.43738 16.7726H3.43738L3.72439 16.0796ZM14.7463 14.2757L15.4392 14.5627V14.5627L14.7463 14.2757ZM11.4256 16.3208L11.4016 15.5712L11.4256 16.3208ZM12.9423 16.0796L13.2293 16.7726L13.2293 16.7726L12.9423 16.0796ZM13.4083 5.4912L13.8002 4.85172L13.8002 4.85172L13.4083 5.4912ZM14.5088 6.59168L15.1483 6.19981V6.1998L14.5088 6.59168ZM3.25834 5.4912L2.86647 4.85172V4.85172L3.25834 5.4912ZM2.15787 6.59168L1.51839 6.19981H1.51839L2.15787 6.59168ZM6.59698 16.5186L6.21514 17.1641L6.59698 16.5186ZM9.70319 18.3072L9.91938 17.9419L8.62855 17.1779L8.41236 17.5432L9.70319 18.3072ZM6.74726 17.9419L6.96346 18.3072L8.25429 17.5432L8.0381 17.1779L6.74726 17.9419ZM8.41236 17.5432C8.4032 17.5586 8.39387 17.5663 8.38398 17.5716C8.37202 17.5781 8.35447 17.5833 8.33332 17.5833C8.31218 17.5833 8.29463 17.5781 8.28267 17.5716C8.27278 17.5663 8.26344 17.5586 8.25429 17.5432L6.96346 18.3072C7.57598 19.342 9.09067 19.342 9.70319 18.3072L8.41236 17.5432ZM7.33334 5.75H9.33334V4.25H7.33334V5.75ZM14.25 10.6667V11.3334H15.75V10.6667H14.25ZM2.41667 11.3334V10.6667H0.916672V11.3334H2.41667ZM0.916672 11.3334C0.916672 12.0997 0.916266 12.712 0.950128 13.2083C0.984451 13.7113 1.05647 14.1498 1.2275 14.5627L2.61332 13.9886C2.53061 13.789 2.47576 13.5328 2.44665 13.1062C2.41708 12.6728 2.41667 12.1202 2.41667 11.3334H0.916672ZM5.26507 15.5712C4.60782 15.5502 4.268 15.493 4.01141 15.3867L3.43738 16.7726C3.95666 16.9876 4.52424 17.0483 5.21712 17.0704L5.26507 15.5712ZM1.2275 14.5627C1.64193 15.5632 2.43685 16.3581 3.43738 16.7726L4.01141 15.3867C3.37842 15.1245 2.87551 14.6216 2.61332 13.9886L1.2275 14.5627ZM14.25 11.3334C14.25 12.1202 14.2496 12.6728 14.22 13.1062C14.1909 13.5328 14.1361 13.789 14.0534 13.9886L15.4392 14.5627C15.6102 14.1498 15.6822 13.7113 15.7165 13.2083C15.7504 12.712 15.75 12.0997 15.75 11.3334H14.25ZM11.4495 17.0704C12.1424 17.0483 12.71 16.9876 13.2293 16.7726L12.6553 15.3867C12.3987 15.493 12.0588 15.5502 11.4016 15.5712L11.4495 17.0704ZM14.0534 13.9886C13.7912 14.6216 13.2883 15.1245 12.6553 15.3867L13.2293 16.7726C14.2298 16.3581 15.0247 15.5632 15.4392 14.5627L14.0534 13.9886ZM9.33334 5.75C10.439 5.75 11.2156 5.75079 11.8176 5.80803C12.4085 5.86421 12.7533 5.96943 13.0165 6.13068L13.8002 4.85172C13.2618 4.52177 12.6603 4.38139 11.9596 4.31477C11.2701 4.24921 10.41 4.25 9.33334 4.25V5.75ZM15.75 10.6667C15.75 9.59006 15.7508 8.72993 15.6852 8.04042C15.6186 7.33975 15.4782 6.73824 15.1483 6.19981L13.8693 6.98355C14.0306 7.24669 14.1358 7.59153 14.192 8.1824C14.2492 8.78443 14.25 9.56102 14.25 10.6667H15.75ZM13.0165 6.13068C13.3641 6.34369 13.6563 6.63595 13.8693 6.98355L15.1483 6.1998C14.8116 5.65037 14.3496 5.18842 13.8002 4.85172L13.0165 6.13068ZM7.33334 4.25C6.25672 4.25 5.39658 4.24921 4.70708 4.31477C4.00641 4.38139 3.4049 4.52177 2.86647 4.85172L3.65022 6.13068C3.91335 5.96943 4.25819 5.86421 4.84906 5.80803C5.45109 5.75079 6.22767 5.75 7.33334 5.75V4.25ZM2.41667 10.6667C2.41667 9.56102 2.41746 8.78443 2.4747 8.1824C2.53088 7.59153 2.6361 7.24669 2.79735 6.98355L1.51839 6.19981C1.18844 6.73824 1.04806 7.33975 0.981439 8.04042C0.915881 8.72993 0.916672 9.59006 0.916672 10.6667H2.41667ZM2.86647 4.85172C2.31703 5.18842 1.85508 5.65037 1.51839 6.19981L2.79735 6.98355C3.01036 6.63595 3.30262 6.34369 3.65022 6.13068L2.86647 4.85172ZM8.03809 17.1779C7.87194 16.8972 7.7218 16.642 7.57521 16.4402C7.41972 16.2261 7.23629 16.0254 6.97883 15.8731L6.21514 17.1641C6.23365 17.1751 6.27483 17.2023 6.36157 17.3217C6.45722 17.4534 6.56694 17.6373 6.74727 17.9419L8.03809 17.1779ZM5.21712 17.0704C5.59057 17.0824 5.82131 17.0905 5.99472 17.1116C6.15632 17.1313 6.20126 17.1559 6.21514 17.1641L6.97883 15.8731C6.71674 15.7181 6.44371 15.6553 6.17634 15.6227C5.92078 15.5915 5.61156 15.5823 5.26507 15.5712L5.21712 17.0704ZM9.91938 17.9419C10.0997 17.6373 10.2094 17.4534 10.3051 17.3217C10.3918 17.2023 10.433 17.1751 10.4515 17.1641L9.68782 15.8731C9.43036 16.0254 9.24693 16.2261 9.09144 16.4402C8.94485 16.642 8.79471 16.8972 8.62855 17.1779L9.91938 17.9419ZM11.4016 15.5712C11.0551 15.5823 10.7459 15.5915 10.4903 15.6227C10.2229 15.6553 9.94991 15.7181 9.68782 15.8731L10.4515 17.1641C10.4654 17.1559 10.5103 17.1313 10.6719 17.1116C10.8453 17.0905 11.0761 17.0824 11.4495 17.0704L11.4016 15.5712Z" fill="#F68013"/>
<path d="M18.0954 10.3626L18.7883 10.6496L18.0954 10.3626ZM16.4042 12.0538L16.6912 12.7467L16.6912 12.7467L16.4042 12.0538ZM16.8411 2.12716L16.4492 2.76664L16.8411 2.12716ZM17.8728 3.15885L18.5123 2.76698L18.5123 2.76698L17.8728 3.15885ZM7.32549 2.12716L6.93361 1.48768V1.48768L7.32549 2.12716ZM6.29379 3.15885L5.65431 2.76698H5.65431L6.29379 3.15885ZM11.1458 2.41666H13.0208V0.916656H11.1458V2.41666ZM17.5833 6.97918V7.60418H19.0833V6.97918H17.5833ZM17.5833 7.60418C17.5833 8.34248 17.5829 8.85864 17.5553 9.263C17.5282 9.66061 17.4773 9.89504 17.4025 10.0756L18.7883 10.6496C18.9514 10.2558 19.0195 9.83909 19.0518 9.3651C19.0837 8.89785 19.0833 8.32196 19.0833 7.60418H17.5833ZM17.4025 10.0756C17.1615 10.6575 16.6991 11.1199 16.1172 11.3609L16.6912 12.7467C17.6407 12.3534 18.395 11.5991 18.7883 10.6496L17.4025 10.0756ZM13.0208 2.41666C14.0583 2.41666 14.7837 2.41745 15.3454 2.47085C15.8959 2.52319 16.2111 2.62074 16.4492 2.76664L17.233 1.48768C16.7196 1.17308 16.1477 1.04037 15.4873 0.977587C14.8382 0.915865 14.0292 0.916656 13.0208 0.916656V2.41666ZM19.0833 6.97918C19.0833 5.97075 19.0841 5.16176 19.0224 4.51261C18.9596 3.85231 18.8269 3.28036 18.5123 2.76698L17.2333 3.55073C17.3792 3.78881 17.4768 4.10408 17.5291 4.65459C17.5825 5.21627 17.5833 5.94171 17.5833 6.97918H19.0833ZM16.4492 2.76664C16.7688 2.96247 17.0375 3.23116 17.2333 3.55073L18.5123 2.76698C18.1928 2.24558 17.7544 1.8072 17.233 1.48768L16.4492 2.76664ZM11.1458 0.916656C10.1374 0.916656 9.32838 0.915865 8.67924 0.977587C8.01893 1.04037 7.44699 1.17308 6.93361 1.48768L7.71736 2.76664C7.95545 2.62074 8.27071 2.52319 8.82122 2.47085C9.38289 2.41745 10.1083 2.41666 11.1458 2.41666V0.916656ZM6.93361 1.48768C6.41221 1.8072 5.97383 2.24558 5.65431 2.76698L6.93327 3.55073C7.12911 3.23116 7.39779 2.96247 7.71736 2.76664L6.93361 1.48768ZM6.61 5.03895C6.65135 4.24392 6.75432 3.84276 6.93327 3.55073L5.65431 2.76698C5.27319 3.38891 5.15668 4.10251 5.11202 4.96103L6.61 5.03895ZM15.0249 13.0289C15.6669 13.0076 16.2006 12.95 16.6912 12.7467L16.1172 11.3609C15.8872 11.4562 15.5793 11.5097 14.9751 11.5298L15.0249 13.0289Z" fill="#F68013"/>
<path d="M5.42422 10.8333H5.43172M8.33316 10.8333H8.34066M11.2423 10.8333H11.2498" stroke="#F68013" stroke-width="2" stroke-linecap="round" stroke-linejoin="round"/>
</g>
<defs>
<clipPath id="clip0_625_7662">
<rect width="20" height="20" fill="white"/>
</clipPath>
</defs>
</svg>
