<svg width="28" height="28" viewBox="0 0 28 28" fill="none" xmlns="http://www.w3.org/2000/svg">
<path d="M4.37487 12.25L22.9686 7.26249L22.0608 3.8828C22.0317 3.77157 21.9807 3.66727 21.9108 3.576C21.8408 3.48474 21.7534 3.40835 21.6536 3.3513C21.5538 3.29426 21.4436 3.25771 21.3294 3.2438C21.2153 3.22989 21.0995 3.2389 20.9889 3.2703L4.0905 7.79842C3.97905 7.82765 3.87448 7.87861 3.78278 7.94835C3.69108 8.0181 3.61406 8.10527 3.55613 8.20486C3.49821 8.30446 3.46052 8.4145 3.44524 8.5287C3.42995 8.64289 3.43737 8.75898 3.46706 8.8703L4.37487 12.25Z" stroke="#0062FF" stroke-width="2" stroke-linecap="round" stroke-linejoin="round"/>
<path d="M14.2295 5.07501L19.5889 8.17032" stroke="#0062FF" stroke-width="2" stroke-linecap="round" stroke-linejoin="round"/>
<path d="M6.62793 7.1203L11.9764 10.2156" stroke="#0062FF" stroke-width="2" stroke-linecap="round" stroke-linejoin="round"/>
<path d="M4.375 12.25H23.625V21.875C23.625 22.1071 23.5328 22.3296 23.3687 22.4937C23.2046 22.6578 22.9821 22.75 22.75 22.75H5.25C5.01794 22.75 4.79538 22.6578 4.63128 22.4937C4.46719 22.3296 4.375 22.1071 4.375 21.875V12.25Z" stroke="#242526" stroke-width="2" stroke-linecap="round" stroke-linejoin="round"/>
<path fill-rule="evenodd" clip-rule="evenodd" d="M12.072 14.2333C12.5041 13.9523 13.0859 13.9011 13.594 14.213L16.771 16.1638C17.2773 16.4747 17.5 17.0121 17.5 17.5C17.5 17.9879 17.2773 18.5253 16.771 18.8362L13.594 20.787C13.0859 21.0989 12.5041 21.0477 12.072 20.7667C11.6473 20.4906 11.375 20.0043 11.375 19.4508V15.5492C11.375 14.9957 11.6473 14.5094 12.072 14.2333ZM12.8478 15.4035C12.8304 15.4149 12.7885 15.4562 12.7885 15.5492V19.4508C12.7885 19.5438 12.8304 19.5851 12.8478 19.5965L12.849 19.5972L16.0263 17.6463C16.0462 17.6341 16.0865 17.5918 16.0865 17.5C16.0865 17.4082 16.0462 17.3659 16.0263 17.3537L12.8492 15.4029L12.8478 15.4035Z" fill="#0062FF"/>
</svg>
