<svg width="28" height="28" viewBox="0 0 28 28" fill="none" xmlns="http://www.w3.org/2000/svg">
<path d="M3.5 25.667H24.5" stroke="#0062FF" stroke-width="1.5" stroke-linecap="round" stroke-linejoin="round"/>
<path d="M3.5 12.8333C3.5 11.7334 3.5 11.1834 3.84171 10.8417C4.18342 10.5 4.73339 10.5 5.83333 10.5C6.93328 10.5 7.48325 10.5 7.82496 10.8417C8.16667 11.1834 8.16667 11.7334 8.16667 12.8333V19.8333C8.16667 20.9333 8.16667 21.4832 7.82496 21.825C7.48325 22.1667 6.93328 22.1667 5.83333 22.1667C4.73339 22.1667 4.18342 22.1667 3.84171 21.825C3.5 21.4832 3.5 20.9333 3.5 19.8333V12.8333Z" stroke="#242526" stroke-width="1.5"/>
<path d="M11.667 8.16634C11.667 7.0664 11.667 6.51643 12.0087 6.17472C12.3504 5.83301 12.9004 5.83301 14.0003 5.83301C15.1003 5.83301 15.6502 5.83301 15.992 6.17472C16.3337 6.51643 16.3337 7.0664 16.3337 8.16634V19.833C16.3337 20.933 16.3337 21.4829 15.992 21.8246C15.6502 22.1663 15.1003 22.1663 14.0003 22.1663C12.9004 22.1663 12.3504 22.1663 12.0087 21.8246C11.667 21.4829 11.667 20.933 11.667 19.833V8.16634Z" stroke="#242526" stroke-width="1.5"/>
<path d="M19.833 4.66634C19.833 3.5664 19.833 3.01643 20.1747 2.67472C20.5164 2.33301 21.0664 2.33301 22.1663 2.33301C23.2663 2.33301 23.8163 2.33301 24.158 2.67472C24.4997 3.01643 24.4997 3.5664 24.4997 4.66634V19.833C24.4997 20.933 24.4997 21.4829 24.158 21.8246C23.8163 22.1663 23.2663 22.1663 22.1663 22.1663C21.0664 22.1663 20.5164 22.1663 20.1747 21.8246C19.833 21.4829 19.833 20.933 19.833 19.833V4.66634Z" stroke="#0062FF" stroke-width="1.5"/>
</svg>
