<svg width="28" height="28" viewBox="0 0 28 28" fill="none" xmlns="http://www.w3.org/2000/svg">
<path fill-rule="evenodd" clip-rule="evenodd" d="M24.4109 13.7086C24.3872 13.7083 24.3562 13.7083 24.3057 13.7083H21.2694C19.6088 13.7083 18.3752 14.9435 18.3752 16.3333C18.3752 17.7231 19.6088 18.9583 21.2694 18.9583H24.3057C24.3562 18.9583 24.3872 18.9583 24.4109 18.9581C24.4333 18.9578 24.4394 18.9574 24.4394 18.9574C24.6799 18.9428 24.7833 18.7805 24.7912 18.6829C24.7912 18.6829 24.7914 18.6756 24.7916 18.665C24.7918 18.6443 24.7918 18.6167 24.7918 18.5694V14.0972C24.7918 14.0711 24.7918 14.0509 24.7918 14.0347C24.7917 14.0215 24.7917 14.0109 24.7916 14.0017C24.7914 13.9911 24.7912 13.9838 24.7912 13.9838C24.7833 13.8861 24.6799 13.7238 24.4394 13.7092C24.4394 13.7092 24.4337 13.7088 24.4109 13.7086ZM24.325 11.9583C24.4025 11.9583 24.4771 11.9583 24.5457 11.9624C25.5623 12.0243 26.4614 12.7911 26.537 13.8621C26.5419 13.9323 26.5419 14.008 26.5418 14.0782C26.5418 14.0846 26.5418 14.0909 26.5418 14.0972V18.5694C26.5418 18.5757 26.5418 18.5821 26.5418 18.5885C26.5419 18.6586 26.5419 18.7344 26.537 18.8046C26.4614 19.8756 25.5623 20.6423 24.5457 20.7042C24.4771 20.7084 24.4025 20.7084 24.325 20.7083C24.3186 20.7083 24.3122 20.7083 24.3057 20.7083H21.2694C18.7667 20.7083 16.6252 18.8095 16.6252 16.3333C16.6252 13.8572 18.7667 11.9583 21.2694 11.9583H24.3057C24.3122 11.9583 24.3186 11.9583 24.325 11.9583Z" fill="#242526"/>
<path d="M22.1668 16.3333C22.1668 16.9777 21.6445 17.5 21.0002 17.5C20.3558 17.5 19.8335 16.9777 19.8335 16.3333C19.8335 15.689 20.3558 15.1667 21.0002 15.1667C21.6445 15.1667 22.1668 15.689 22.1668 16.3333Z" fill="#242526"/>
<path fill-rule="evenodd" clip-rule="evenodd" d="M24.325 11.9583C24.4025 11.9583 24.4771 11.9583 24.5457 11.9624C24.8088 11.9785 25.0639 12.0417 25.299 12.1451C25.1742 10.2709 24.8305 8.82657 23.752 7.74812C22.879 6.87503 21.7718 6.48756 20.404 6.30366L20.3547 6.29713C20.3424 6.28806 20.3299 6.27926 20.317 6.27075L15.959 3.38107C14.4386 2.37298 12.395 2.37298 10.8747 3.38107L6.51662 6.27075C6.50378 6.27926 6.49123 6.28806 6.47898 6.29713L6.42964 6.30366C5.06181 6.48756 3.9547 6.87503 3.08161 7.74812C2.20852 8.62121 1.82105 9.72831 1.63715 11.0961C1.45846 12.4252 1.45848 14.1235 1.4585 16.2675V16.3992C1.45848 18.5432 1.45846 20.2414 1.63715 21.5705C1.82105 22.9384 2.20852 24.0455 3.08161 24.9185C3.9547 25.7916 5.06181 26.1791 6.42964 26.363C7.75872 26.5417 9.45696 26.5417 11.601 26.5417H15.2326C17.3767 26.5417 19.0749 26.5417 20.404 26.363C21.7718 26.1791 22.879 25.7916 23.752 24.9185C24.8305 23.8401 25.1742 22.3958 25.299 20.5216C25.0639 20.625 24.8088 20.6882 24.5457 20.7042C24.4771 20.7084 24.4025 20.7084 24.325 20.7083L24.3057 20.7083H23.5294C23.3966 22.2734 23.0962 23.0995 22.5146 23.6811C22.0209 24.1749 21.3446 24.4708 20.1708 24.6286C18.9719 24.7898 17.3915 24.7917 15.1668 24.7917H11.6668C9.44221 24.7917 7.86176 24.7898 6.66282 24.6286C5.48905 24.4708 4.8128 24.1749 4.31905 23.6811C3.82531 23.1874 3.52936 22.5111 3.37155 21.3373C3.21036 20.1384 3.2085 18.558 3.2085 16.3333C3.2085 14.1087 3.21036 12.5283 3.37155 11.3293C3.52936 10.1556 3.82531 9.4793 4.31905 8.98555C4.81279 8.49181 5.48905 8.19586 6.66282 8.03805C7.86176 7.87686 9.44221 7.875 11.6668 7.875H15.1668C17.3915 7.875 18.9719 7.87686 20.1708 8.03805C21.3446 8.19586 22.0209 8.49181 22.5146 8.98555C23.0962 9.56717 23.3966 10.3933 23.5294 11.9583H24.3057L24.325 11.9583ZM11.601 6.125H15.2326C15.8352 6.12499 16.4026 6.12499 16.9365 6.12895L14.9919 4.83958C14.0577 4.22014 12.776 4.22014 11.8418 4.83958L9.8972 6.12895C10.4311 6.12499 10.9984 6.12499 11.601 6.125Z" fill="#242526"/>
<path d="M7.00016 10.7917C6.51691 10.7917 6.12516 11.1834 6.12516 11.6667C6.12516 12.1499 6.51691 12.5417 7.00016 12.5417H11.6668C12.1501 12.5417 12.5418 12.1499 12.5418 11.6667C12.5418 11.1834 12.1501 10.7917 11.6668 10.7917H7.00016Z" fill="#242526"/>
<path fill-rule="evenodd" clip-rule="evenodd" d="M22.1668 16.3333C22.1668 16.9777 21.6445 17.5 21.0002 17.5C20.3558 17.5 19.8335 16.9777 19.8335 16.3333C19.8335 15.689 20.3558 15.1667 21.0002 15.1667C21.6445 15.1667 22.1668 15.689 22.1668 16.3333Z" fill="#242526"/>
<path fill-rule="evenodd" clip-rule="evenodd" d="M24.4108 13.7086C24.3871 13.7083 24.356 13.7083 24.3056 13.7083H21.2692C19.6086 13.7083 18.375 14.9435 18.375 16.3333C18.375 17.7232 19.6086 18.9583 21.2692 18.9583H24.3056C24.356 18.9583 24.3871 18.9583 24.4108 18.9581C24.4331 18.9578 24.4393 18.9575 24.4393 18.9575C24.6797 18.9428 24.7832 18.7805 24.791 18.6829C24.791 18.6829 24.7913 18.6756 24.7914 18.665C24.7917 18.6443 24.7917 18.6167 24.7917 18.5694V14.0972C24.7917 14.0711 24.7917 14.0509 24.7916 14.0347C24.7916 14.0215 24.7915 14.0109 24.7914 14.0017C24.7913 13.9911 24.791 13.9838 24.791 13.9838C24.7832 13.8861 24.6797 13.7239 24.4393 13.7092C24.4393 13.7092 24.4335 13.7088 24.4108 13.7086ZM24.3249 11.9583C24.4023 11.9583 24.477 11.9583 24.5456 11.9625C25.5622 12.0243 26.4612 12.7911 26.5368 13.8621C26.5418 13.9323 26.5417 14.008 26.5417 14.0782C26.5417 14.0846 26.5417 14.0909 26.5417 14.0972V18.5694C26.5417 18.5757 26.5417 18.5821 26.5417 18.5885C26.5417 18.6587 26.5418 18.7344 26.5368 18.8046C26.4612 19.8756 25.5622 20.6424 24.5456 20.7042C24.477 20.7084 24.4023 20.7084 24.3249 20.7083C24.3185 20.7083 24.312 20.7083 24.3056 20.7083H21.2692C18.7665 20.7083 16.625 18.8095 16.625 16.3333C16.625 13.8572 18.7665 11.9583 21.2692 11.9583H24.3056C24.312 11.9583 24.3185 11.9583 24.3249 11.9583Z" fill="#0062FF"/>
<path d="M22.1667 16.3333C22.1667 16.9777 21.6443 17.5 21 17.5C20.3557 17.5 19.8333 16.9777 19.8333 16.3333C19.8333 15.689 20.3557 15.1667 21 15.1667C21.6443 15.1667 22.1667 15.689 22.1667 16.3333Z" fill="#0062FF"/>
<path d="M7 10.7917C6.51675 10.7917 6.125 11.1834 6.125 11.6667C6.125 12.1499 6.51675 12.5417 7 12.5417H11.6667C12.1499 12.5417 12.5417 12.1499 12.5417 11.6667C12.5417 11.1834 12.1499 10.7917 11.6667 10.7917H7Z" fill="#0062FF"/>
<path fill-rule="evenodd" clip-rule="evenodd" d="M22.1667 16.3333C22.1667 16.9777 21.6443 17.5 21 17.5C20.3557 17.5 19.8333 16.9777 19.8333 16.3333C19.8333 15.689 20.3557 15.1667 21 15.1667C21.6443 15.1667 22.1667 15.689 22.1667 16.3333Z" fill="#0062FF"/>
</svg>
