<svg width="28" height="28" viewBox="0 0 28 28" fill="none" xmlns="http://www.w3.org/2000/svg">
<path fill-rule="evenodd" clip-rule="evenodd" d="M14.5557 3.20834C11.3473 3.20834 8.76405 5.77598 8.76405 8.92158C8.76405 9.46077 8.83953 9.98144 8.98033 10.4745C9.5604 10.6419 10.1034 10.8954 10.594 11.2199C10.9971 11.4866 11.1077 12.0294 10.8411 12.4325C10.5744 12.8355 10.0316 12.9461 9.62852 12.6795C9.18424 12.3856 8.67919 12.1748 8.13567 12.0693C7.87688 12.0191 7.60875 11.9927 7.3335 11.9927C5.04553 11.9927 3.2085 13.8229 3.2085 16.0588C3.2085 18.2948 5.04553 20.125 7.3335 20.125C7.81674 20.125 8.2085 20.5168 8.2085 21C8.2085 21.4833 7.81674 21.875 7.3335 21.875C4.09861 21.875 1.4585 19.2808 1.4585 16.0588C1.4585 12.9039 3.99002 10.3508 7.13259 10.246C7.05468 9.81582 7.01405 9.37316 7.01405 8.92158C7.01405 4.79001 10.4004 1.45834 14.5557 1.45834C18.2401 1.45834 21.318 4.07599 21.9701 7.54982C24.6534 8.68877 26.5418 11.3275 26.5418 14.4118C26.5418 17.9981 23.9895 20.9817 20.5998 21.7066C20.1272 21.8077 19.6622 21.5065 19.5612 21.0339C19.4601 20.5614 19.7613 20.0964 20.2338 19.9953C22.8469 19.4365 24.7918 17.1418 24.7918 14.4118C24.7918 11.9189 23.171 9.78936 20.898 9.01208C20.3046 8.80919 19.6665 8.69854 19.0002 8.69854C18.3204 8.69854 17.67 8.81369 17.0665 9.02448C16.6103 9.18384 16.1112 8.94318 15.9519 8.48696C15.7925 8.03074 16.0332 7.53172 16.4894 7.37236C17.2761 7.0976 18.1215 6.94854 19.0002 6.94854C19.3449 6.94854 19.6845 6.97148 20.0174 7.01596C19.2234 4.80237 17.0827 3.20834 14.5557 3.20834Z" fill="#242526"/>
<path fill-rule="evenodd" clip-rule="evenodd" d="M14.5296 16.0801C13.784 15.8516 13.2251 16.3702 12.9645 16.641L11.9036 17.9802L11.8666 18.0302L10.5269 19.8428L10.4928 19.889L9.84532 20.8445C9.68862 21.1387 9.48133 21.6566 9.76535 22.205C9.77203 22.2179 9.77888 22.2306 9.78588 22.2432C10.0781 22.7677 10.6098 22.8958 10.9367 22.9415C11.2613 22.9869 11.6779 22.9868 12.1149 22.9867L12.1704 22.9867C12.2798 22.9867 12.3695 22.9868 12.4474 22.9879C12.4481 23.0539 12.4482 23.1293 12.4482 23.2193L12.4482 23.3547L12.4481 23.4185C12.4481 24.0822 12.448 24.67 12.5065 25.1037C12.5561 25.4721 12.7058 26.2363 13.4707 26.4707C14.2163 26.6992 14.7752 26.1805 15.0358 25.9098C15.3427 25.5908 15.6955 25.1135 16.0968 24.5705L17.4734 22.7079L17.5075 22.6618L17.5545 22.5982C17.789 22.2809 18.0124 21.974 18.155 21.7063C18.3117 21.4121 18.519 20.8942 18.235 20.3458L18.2144 20.3075C17.9222 19.7831 17.3905 19.655 17.0637 19.6093C16.739 19.5639 16.3225 19.5639 15.8855 19.564L15.8299 19.564C15.7205 19.564 15.6308 19.564 15.5529 19.5629C15.5522 19.4969 15.5522 19.4215 15.5522 19.3315V19.196L15.5522 19.1322C15.5522 18.4685 15.5523 17.8808 15.4938 17.447C15.4442 17.0786 15.2945 16.3145 14.5296 16.0801ZM13.798 18.3693C13.6517 18.5599 13.4802 18.7913 13.2739 19.0704L11.9342 20.883C11.8361 21.0158 11.7508 21.1312 11.6762 21.2346C11.8132 21.2364 11.9757 21.2367 12.1704 21.2367L12.2091 21.2367C12.4446 21.2366 12.6966 21.2365 12.9091 21.2636C13.1545 21.2949 13.4736 21.3751 13.7483 21.6335L13.755 21.6398L13.7705 21.6548C14.0446 21.9238 14.1345 22.2445 14.1692 22.4962C14.1984 22.7073 14.1983 22.9559 14.1982 23.1798L14.1982 23.2193L14.1982 23.3547C14.1981 23.6805 14.1985 23.9528 14.2023 24.1814C14.3486 23.9908 14.5201 23.7594 14.7264 23.4803L16.0661 21.6678C16.1642 21.535 16.2495 21.4195 16.3241 21.3161C16.1871 21.3143 16.0246 21.314 15.8299 21.314L15.7912 21.314C15.5557 21.3141 15.3037 21.3142 15.0912 21.2871C14.8458 21.2558 14.5267 21.1756 14.2521 20.9173L14.2453 20.9109L14.2298 20.896C13.9557 20.627 13.8659 20.3063 13.8311 20.0546C13.8019 19.8435 13.802 19.5948 13.8022 19.371L13.8022 19.3315V19.196C13.8022 18.8703 13.8018 18.5979 13.798 18.3693Z" fill="#242526"/>
<path fill-rule="evenodd" clip-rule="evenodd" d="M14.5292 16.08C13.7837 15.8515 13.2247 16.3702 12.9642 16.6409L11.9032 17.9802L11.8663 18.0302L10.5266 19.8428L10.4925 19.8889L9.84499 20.8444C9.6883 21.1386 9.48101 21.6565 9.76503 22.2049C9.7717 22.2178 9.77856 22.2306 9.78555 22.2431C10.0778 22.7676 10.6095 22.8957 10.9363 22.9414C11.261 22.9868 11.6775 22.9868 12.1145 22.9867L12.1701 22.9867C12.2795 22.9867 12.3692 22.9867 12.4471 22.9878C12.4478 23.0538 12.4478 23.1292 12.4478 23.2192L12.4478 23.3547L12.4478 23.4185C12.4478 24.0822 12.4477 24.6699 12.5061 25.1037C12.5558 25.472 12.7055 26.2362 13.4704 26.4706C14.2159 26.6991 14.7749 26.1805 15.0355 25.9097C15.3424 25.5908 15.6952 25.1134 16.0964 24.5704L17.4731 22.7079L17.5072 22.6617L17.5542 22.5981C17.7886 22.2808 18.0121 21.974 18.1547 21.7062C18.3114 21.412 18.5187 20.8941 18.2347 20.3457L18.2141 20.3074C17.9218 19.783 17.3902 19.6549 17.0633 19.6092C16.7387 19.5638 16.3221 19.5639 15.8851 19.564L15.8296 19.564C15.7202 19.564 15.6305 19.5639 15.5526 19.5628C15.5519 19.4968 15.5518 19.4214 15.5518 19.3314V19.1959L15.5518 19.1321C15.5519 18.4684 15.552 17.8807 15.4935 17.4469C15.4439 17.0786 15.2941 16.3144 14.5292 16.08ZM13.7977 18.3693C13.6514 18.5599 13.4799 18.7913 13.2736 19.0703L11.9339 20.8829C11.8357 21.0157 11.7505 21.1312 11.6758 21.2346C11.8129 21.2364 11.9754 21.2367 12.1701 21.2367L12.2088 21.2367C12.4442 21.2366 12.6963 21.2365 12.9088 21.2636C13.1542 21.2949 13.4733 21.3751 13.7479 21.6334L13.7547 21.6398L13.7702 21.6547C14.0443 21.9237 14.1342 22.2444 14.1689 22.4961C14.1981 22.7073 14.1979 22.9559 14.1978 23.1798L14.1978 23.2192L14.1978 23.3547C14.1978 23.6804 14.1982 23.9527 14.202 24.1813C14.3483 23.9908 14.5198 23.7593 14.7261 23.4803L16.0657 21.6677C16.1639 21.5349 16.2492 21.4195 16.3238 21.3161C16.1868 21.3143 16.0243 21.314 15.8296 21.314L15.7908 21.314C15.5554 21.3141 15.3034 21.3142 15.0909 21.2871C14.8455 21.2558 14.5264 21.1756 14.2517 20.9172L14.2449 20.9108L14.2295 20.8959C13.9554 20.6269 13.8655 20.3062 13.8308 20.0545C13.8016 19.8434 13.8017 19.5948 13.8018 19.3709L13.8018 19.3314V19.1959C13.8018 18.8702 13.8015 18.5979 13.7977 18.3693Z" fill="#0062FF"/>
</svg>
